<svg xmlns="http://www.w3.org/2000/svg" viewBox="0 0 330.68 330.68"><defs><style>.cls-1,.cls-2{fill:none;stroke:#7A7D81;stroke-miterlimit:10;}.cls-1{stroke-width:5px;}.cls-2{stroke-width:3px;}.cls-3{fill:#7A7D81;}</style></defs><g id="Layer_2" data-name="Layer 2"><g id="Layer_1-2" data-name="Layer 1"><path class="cls-1" d="M230.09,79.85s-24,4.6-37.16,11.72c0,0-10,2.62-34.37,29.29,0,0-16.29,23.73-50.91,19.73,0,0-25.27-1.17-32.57-28.71,0,0-13.31,8.28-16.63,15.46,0,0-4-2.52-3.45-5.29,0,0,0-1.88,2.72-1.36a17,17,0,0,0,3.73-2s12.65-9.94,12.73-10.19-4.34-9.88,2.66-27.74c0,0,5.31-15.21,24.71-23.34,0,0,18-10.85,51.53-5.09C153.08,52.36,189.51,59.37,230.09,79.85Z"/><path class="cls-1" d="M44.53,151.42S61,169.49,73.9,177c0,0,7.45,7.19,42.9,14.08,0,0,28.74,1.55,43.36,33.19,0,0,12.17,22.18-7.55,42.75,0,0,14,7.05,21.87,6.14,0,0-.09,4.7-2.72,5.7,0,0-1.59,1-2.59-1.61a16.68,16.68,0,0,0-3.62-2.16s-15.07-5.62-15.33-5.56-6.17,8.85-25.06,12.18c0,0-15.75,3.39-32.79-8.94,0,0-18.66-9.73-31.19-41.33C61.18,231.48,48.19,196.73,44.53,151.42Z"/><path class="cls-2" d="M150.91,269.58c-40-10.89-70.67-75.22-70.67-75.22s30.91,52.4,72.36,73.42Z"/><path class="cls-1" d="M218.48,260.88c2-8.1,4.57-20.48,4.46-29.75a3.87,3.87,0,0,1,0-.48c.24-1.63,1.2-12.67-10.17-43.59a3.09,3.09,0,0,0-.14-.32c-1-2.05-12.65-26.44,5.93-54.08l.07-.11a36.88,36.88,0,0,1,36.53-16.37,3.06,3.06,0,0,0,3.43-3.45c-.57-4-1.7-10.12-3.76-14.58a3,3,0,0,1,4.44-3.78s1.42.7.32,2.52a3,3,0,0,0-.43,1.29,14.57,14.57,0,0,0,.1,3.46s3,15.8,3.2,16,10.76.69,23.41,15.11c0,0,11,11.65,9.37,32.5,0,.11,0,.22,0,.33.08,2,.32,22.2-19.18,48,0,0-20.07,25.44-52.77,50.49A3,3,0,0,1,218.48,260.88Z"/><path class="cls-3" d="M165.34,5A160.34,160.34,0,0,1,278.72,278.72,160.34,160.34,0,0,1,52,52,159.32,159.32,0,0,1,165.34,5m0-5A165.34,165.34,0,1,0,330.68,165.34,165.35,165.35,0,0,0,165.34,0Z"/><path class="cls-2" d="M262,116.76c9.71,40.26-31.87,98.17-31.87,98.17s31-52.34,29.47-98.79Z"/><path class="cls-2" d="M70.93,113.12c27.91-30.6,99.17-28.6,99.17-28.6s-60.74,3.62-98.34,30.93Z"/></g></g></svg>