<?xml version="1.0" encoding="UTF-8"?><svg id="a" xmlns="http://www.w3.org/2000/svg" viewBox="0 0 328.03 328.03"><circle cx="164.01" cy="164.01" r="162.01" style="fill:none; stroke:#7a7d81; stroke-miterlimit:10; stroke-width:4px;"/><path d="M224.38,204.79c-12.24-.68-18.02-14.45-18.02-14.45-4.42-9.69-.51-19.72-.51-19.72,6.29-15.64,21.93-17,21.93-17,13.26-2.04,19.55,5.78,19.55,5.78,7.82,7.82,9.35,19.55,9.35,19.55,2.72,20.06-13.26,30.77-13.26,30.77-12.75,8.5-35.43,9.48-35.43,9.48-19.21,2.17-94.51,0-94.51,0l-42.45-67.24h88.8l1.57-2.08,44.52,43.05" style="fill:none; stroke:#7a7d81; stroke-miterlimit:10; stroke-width:4px;"/><path d="M242.36,155.66l-50.94-48.44s-7.03-5.52-19.52-.99c0,0-11.19,3.12-14.35,12.46,0,0-7.04,12.36,3.8,33.73" style="fill:none; stroke:#7a7d81; stroke-miterlimit:10; stroke-width:4px;"/><line x1="205.81" y1="192.84" x2="211.59" y2="198.24" style="fill:none; stroke:#7a7d81; stroke-miterlimit:10; stroke-width:4px;"/><line x1="160.95" y1="151.98" x2="165.15" y2="153.22" style="fill:none; stroke:#7a7d81; stroke-miterlimit:10; stroke-width:4px;"/><line x1="158.58" y1="146.25" x2="160.61" y2="150.14" style="fill:none; stroke:#7a7d81; stroke-miterlimit:10; stroke-width:4px;"/></svg>