<svg xmlns="http://www.w3.org/2000/svg" viewBox="0 0 330 330"><defs><style>.cls-1{fill:#7A7D81;}.cls-2{fill:none;stroke:#7A7D81;stroke-miterlimit:10;stroke-width:5px;}</style></defs><g id="Layer_2" data-name="Layer 2"><g id="Layer_1-2" data-name="Layer 1"><path class="cls-1" d="M165,5A160,160,0,0,1,278.14,278.14,160,160,0,0,1,51.86,51.86,159,159,0,0,1,165,5m0-5A165,165,0,1,0,330,165,165,165,0,0,0,165,0Z"/><path class="cls-2" d="M140.06,33.15s-9.13-8.26-19.35.22c0,0-6.53,5-6.31,22.62a68.64,68.64,0,0,0,1.74,18.7s3.91,17.62,6.31,20c0,0,2.39,3.92,3.69,4.79l20.45-5.22s-.22-8.48.43-9.79c0,0,1.09-6.74,2.18-8a26.72,26.72,0,0,0,2-6.3,27.3,27.3,0,0,0,0-8.3s-1.08-11.49-3.91-16.93C147.24,44.9,145.07,37.72,140.06,33.15Z"/><path class="cls-2" d="M128.75,108.19l20.66-6.31s4.14,4.13,6.31,15c0,0,1.74,11.31-7,15.66,0,0-8.7,4.35-15.66-7.62a46.15,46.15,0,0,1-3-8.69S128.75,109.71,128.75,108.19Z"/><path class="cls-2" d="M187.14,69.38s9.13-8.26,19.36.22c0,0,6.52,5,6.3,22.62a68.18,68.18,0,0,1-1.74,18.7s-3.91,17.62-6.3,20c0,0-2.4,3.92-3.7,4.79l-20.45-5.22s.22-8.49-.43-9.79c0,0-1.09-6.74-2.18-8a26.69,26.69,0,0,1-1.95-6.31,27.25,27.25,0,0,1,0-8.29s1.08-11.5,3.91-16.93C180,81.13,182.14,74,187.14,69.38Z"/><path class="cls-2" d="M198.45,144.41l-20.66-6.3s-4.13,4.13-6.31,15c0,0-1.74,11.31,7,15.66,0,0,8.7,4.35,15.66-7.61a46.38,46.38,0,0,0,3-8.7S198.45,145.94,198.45,144.41Z"/><path class="cls-2" d="M138.79,148.6s-9.13-8.26-19.36.22c0,0-6.52,5-6.3,22.62a68.18,68.18,0,0,0,1.74,18.7s3.91,17.62,6.3,20c0,0,2.4,3.91,3.7,4.78l20.45-5.22s-.22-8.48.43-9.78c0,0,1.09-6.74,2.18-8.05a26.69,26.69,0,0,0,1.95-6.31,27.25,27.25,0,0,0,0-8.29s-1.08-11.5-3.91-16.94C146,160.34,143.79,153.17,138.79,148.6Z"/><path class="cls-2" d="M127.48,223.63l20.66-6.3s4.14,4.13,6.31,15c0,0,1.74,11.31-7,15.66,0,0-8.7,4.35-15.66-7.61a46.38,46.38,0,0,1-3-8.7S127.48,225.16,127.48,223.63Z"/><path class="cls-2" d="M187.25,188.18s9.14-8.26,19.36.22c0,0,6.53,5,6.31,22.62a68.66,68.66,0,0,1-1.74,18.7s-3.92,17.62-6.31,20c0,0-2.39,3.91-3.7,4.78l-20.44-5.22s.22-8.48-.43-9.78c0,0-1.09-6.74-2.18-8a27,27,0,0,1-2-6.31,27.66,27.66,0,0,1,0-8.29s1.09-11.5,3.92-16.94C180.08,199.92,182.25,192.75,187.25,188.18Z"/><path class="cls-2" d="M198.56,263.21l-20.66-6.3s-4.13,4.13-6.3,15c0,0-1.74,11.31,7,15.66,0,0,8.69,4.35,15.65-7.61a46.06,46.06,0,0,0,3-8.7S198.56,264.74,198.56,263.21Z"/></g></g></svg>