<svg id="Layer_1" data-name="Layer 1" xmlns="http://www.w3.org/2000/svg" viewBox="0 0 662.9 662.9"><path d="M685,375.82q0,157.53,0,315.06c0,1.92-.27,2.49-2.4,2.49q-329.08-.09-658.17,0c-1.94,0-2.33-.39-2.33-2.34q.09-329.07,0-658.16c0-2.13.57-2.4,2.49-2.4q157.53.08,315.06,0a.47.47,0,0,1-.09.67c-2.7.87-5.53.65-8.28.83a319.36,319.36,0,0,0-42.48,5.65,329.24,329.24,0,0,0-72.57,23.56,333,333,0,0,0-76.16,48.58A329.91,329.91,0,0,0,27.28,312.28c-1.6,10.41-2.55,20.9-3.15,31.44s-.67,20.94-.26,31.38a322,322,0,0,0,8.05,60.21,335.37,335.37,0,0,0,22.41,65.42A331.68,331.68,0,0,0,100,572.82c5.64,6.84,11.57,13.45,17.79,19.75a336.4,336.4,0,0,0,70.36,54.74,330.84,330.84,0,0,0,116.24,40.83c8,1.21,16,2,24,2.7,12.84,1.18,25.7,1,38.54.79a272.14,272.14,0,0,0,29.32-2.48,333.39,333.39,0,0,0,91.37-25.48,326.84,326.84,0,0,0,53.64-30.11,334.28,334.28,0,0,0,34.87-27.71c4.56-4.15,8.85-8.55,13.23-12.86a307.54,307.54,0,0,0,34.32-40.89,319.27,319.27,0,0,0,29-49.59,330,330,0,0,0,23.87-70.21,353.28,353.28,0,0,0,6.15-39c.52-5.07.94-10.17,1.07-15.27a3.75,3.75,0,0,1,.43-2.08A.47.47,0,0,1,685,375.82Z" transform="translate(-22.1 -30.47)" style="fill:none"/><path d="M684.54,355.15v-4.78l0-2.88a329.45,329.45,0,0,0-11-71.77q-24.71-90.95-93.35-155.57A329.47,329.47,0,0,0,368,30.89l-2.87,0h-4.77l-13.05,0c-1.43,0-2.87,0-4.32-.05h-3.33A331.5,331.5,0,0,0,52.5,224.83C30.38,273.71,20.83,325,23.49,378.6a320.94,320.94,0,0,0,10,65.67c17.86,68,53.57,124.9,107.24,170.23,53.49,45.17,115.43,70.56,185.15,76.77A330.49,330.49,0,0,0,501,658.06,330.75,330.75,0,0,0,684.55,375.85V372.5c0-1.44,0-2.89,0-4.32ZM354.87,40.72C532.15,41.35,675.71,185,674.68,363.2A320.42,320.42,0,0,1,354.1,682.28c-177.06.15-321.56-143.4-321-322C33.73,184.57,176.19,40.1,354.87,40.72Z" transform="translate(-22.1 -30.47)" style="fill:#fa4616"/><path d="M320.27,466.56c-.6-.63-1.13-1.12-1.58-1.68-1.74-2.17-1.71-4.31.25-6.28a1.44,1.44,0,0,0,.3-2.09,3.28,3.28,0,0,1,.13-3.88c.24-.28.42-.49.15-.92a21.64,21.64,0,0,1-3.29-12.1c.25-18.52-7.17-34-18.58-48-5.36-6.55-11-12.87-16.19-19.57A110.73,110.73,0,0,1,259.65,321c-3.31-20.74-1.29-40.94,7.51-60.06,14.63-31.76,39.58-50.84,73.72-57.57,18.25-3.6,35.74.05,52.28,8.13,28.72,14,47.14,36.62,54.51,67.73,6.11,25.75,2.45,50.53-8.88,74.32-5.38,11.3-13.09,20.92-21.22,30.28-6.83,7.85-13.3,16-18,25.33a63.39,63.39,0,0,0-7,29.32,34.3,34.3,0,0,1-2.5,12.08c-.41,1.14-1.19,1.93-.22,3.15a2,2,0,0,1-.07,2.09c-.86,1.37-.66,2.3.49,3.48a3.66,3.66,0,0,1,.29,4.82,29.84,29.84,0,0,1-2,2.5c3.82,3.29,4.05,5.21,1,9.43-.48.67-.5,1,.08,1.65a13.11,13.11,0,0,1,1.94,2.58,4.71,4.71,0,0,1-.93,6.22c-1,.91-.86,1.5-.33,2.5A6.42,6.42,0,0,1,389,497c-4.41,4.08-8.78,8.2-13.49,11.93a40.65,40.65,0,0,1-4.63,3.42,4,4,0,0,0-2.05,2.63,3,3,0,0,1-1.47,2c-9.25,5.45-17,5.26-26-.06-.45-.26-1-.7-1.1-1.14-.45-2.28-2.27-3.21-3.91-4.43a156.22,156.22,0,0,1-14.75-12.68c-.39-.38-.79-.74-1.2-1.09-3-2.53-3.6-5.51-1.82-9,.25-.48.76-.81.12-1.52-3-3.28-3-5.55-.14-8.75,1-1.11,1.11-1.69.15-2.92C316.07,472,316.61,469.33,320.27,466.56Z" transform="translate(-22.1 -30.47)" style="fill:#f05931"/><path d="M134.82,250.8,89.29,202.19,99,193.07c3.67-3.44,7.39-6.45,12.71-6.58s9.86,2.38,13.48,6.25c4.17,4.45,5.51,9.37,3.69,15.18a16.74,16.74,0,0,1,21.53,2.83A17.6,17.6,0,0,1,155.35,225c-.7,6.11-3.77,10.07-8.09,14.11ZM113,221.34l5.35-5c3.28-3.07,6.11-5.36,7-9.95s-.56-7.83-3.7-11.18c-3-3.16-7.08-5.11-11.48-4.25-3.9.74-6.93,3.58-9.77,6.24l-5.35,5ZM135.2,245l7.41-6.95c3.42-3.2,7.08-6.39,8.18-11.17a14,14,0,0,0-3.32-13.1c-3.32-3.55-8.39-5.46-13.18-4-4.36,1.3-8.48,5-11.7,8.06l-6.84,6.4Z" transform="translate(-22.1 -30.47)" style="fill:#fa4616"/><path d="M136.41,165.76,151,185.1,172.42,169l2.39,3.18-21.47,16.13,18.32,24.36,22-16.56,2.39,3.18-25.42,19.11-40-53.24L156.05,146l2.39,3.18Z" transform="translate(-22.1 -30.47)" style="fill:#fa4616"/><path d="M203.92,129.3c-5-2.59-10.22-3.11-15.63.06a12.52,12.52,0,0,0-4.39,17.32c3.53,6,10.72,5.18,16.66,4.66l14.33-.71c6,.19,10.22,2.4,13.26,7.58,5.58,9.53,1.09,21.79-8.2,27.24-8,4.69-17.16,3.4-24.16-2.43l2.35-3.32c6,4.66,13,6.3,20,2.23,7.54-4.42,10.69-14.26,6.22-21.88-3.8-6.47-12-5.33-18.42-4.86l-13.58.59c-5.2-.13-9.3-2.23-12-6.81-5-8.53-2.43-18.13,6.18-23.18a18.68,18.68,0,0,1,18.75-.14Z" transform="translate(-22.1 -30.47)" style="fill:#fa4616"/><path d="M259.46,164.52l-3.9,1.68-24.69-57.55L215,115.44l-1.57-3.65L249,96.53l1.57,3.65L234.76,107Z" transform="translate(-22.1 -30.47)" style="fill:#fa4616"/><path d="M365.93,107.84c2,18.62-12.14,35.65-30.76,37.61s-36-11.75-37.93-30.37S309.29,79.43,328,77.46,364,89.21,365.93,107.84Zm-64.48,6.79a30.3,30.3,0,1,0,27-33.22A30.51,30.51,0,0,0,301.45,114.63Z" transform="translate(-22.1 -30.47)" style="fill:#fa4616"/><path d="M388.8,82l-3.13,24,21.81,2.85L407,112.8,385.16,110l-4.46,34.16-4.2-.55,8.61-66L411.73,81l-.51,4Z" transform="translate(-22.1 -30.47)" style="fill:#fa4616"/><path d="M458.08,92.65l4.29,1.88,4.42,38.78,31.51-23,4.28,1.88L467,138.21l-11.42,26-3.88-1.7,11.42-26.06Z" transform="translate(-22.1 -30.47)" style="fill:#fa4616"/><path d="M517.63,126,504.54,146.4l22.58,14.52L525,164.27l-22.58-14.53-16.48,25.63,23.17,14.91-2.15,3.34-26.74-17.2,36-56L543,137.61,540.81,141Z" transform="translate(-22.1 -30.47)" style="fill:#fa4616"/><path d="M535.11,187.73l-21.06,10.76-3.28-2.83,66.08-33.87L553,232.07l-3.28-2.83,7.56-22.41ZM569.81,170l-30.9,15.81,19.73,17Z" transform="translate(-22.1 -30.47)" style="fill:#fa4616"/><path d="M579.17,261l-3.31-3.55,8.3-37.39-1.45-1.55L559.62,240l-2.89-3.11,48.78-45.35,5.65,6.08c3.67,3.95,7.22,7.89,7.89,13.42.79,5.78-1.77,10.81-5.91,14.66-8.47,7.88-18.35,6.08-25.73-2.13Zm10.12-41.25c2.83,3,5.79,6,10.21,6.43a13.33,13.33,0,0,0,10.88-3.73c3.63-3.37,5.69-8.42,4-13.35-1.18-3.74-4.37-6.91-7-9.76l-1.86-2-19.87,18.47Z" transform="translate(-22.1 -30.47)" style="fill:#fa4616"/><path d="M276.59,646.45l-1.45,4.36-45-15L267.28,615c7.55-4.26,18.26-9.94,21.09-18.46,3.16-9.48-2.27-19.35-11.66-22.48-10-3.32-19.93,1.43-23,11.5L249.11,584c1.93-5.16,4.19-9.36,9.15-12.33a25.53,25.53,0,0,1,19.9-2c12.1,4,18.82,16.47,14.76,28.67-3.25,9.77-13.35,15.23-21.93,20l-29.05,16.56Z" transform="translate(-22.1 -30.47)" style="fill:#fa4616"/><path d="M356.81,620.33c-1,15.88-10.91,39.36-30.45,38.11S300,632.62,301,616.74c1-16.08,11.36-38.31,30.39-37.09S357.85,604.25,356.81,620.33Zm-4.88-.32c.78-12.11-4.41-34.72-20.8-35.78s-24.43,20.71-25.21,32.82c-.89,13.85,4.34,35.75,20.73,36.81S351,633.86,351.93,620Z" transform="translate(-22.1 -30.47)" style="fill:#fa4616"/><path d="M420.27,646.86l.63,4.55-47,6.51L398,622.77c4.88-7.17,12-17,10.73-25.89-1.38-9.91-10.61-16.35-20.41-15-10.41,1.44-17.24,10.11-15.49,20.48L368,603c-.55-5.48-.39-10.24,2.75-15.11a25.53,25.53,0,0,1,17-10.59c12.63-1.75,24.16,6.44,25.93,19.17,1.41,10.2-5.22,19.56-10.79,27.65L384.1,651.88Z" transform="translate(-22.1 -30.47)" style="fill:#fa4616"/><path d="M433.57,573.68l.89-5.07,14-4.34,22.72,73.47-4.67,1.45L445.17,570.1Z" transform="translate(-22.1 -30.47)" style="fill:#fa4616"/></svg>