<svg xmlns="http://www.w3.org/2000/svg" viewBox="0 0 331.11 331.11"><defs><style>.cls-1,.cls-3{fill:#7A7D81;}.cls-2,.cls-4{fill:none;}.cls-2,.cls-3,.cls-4{stroke:#7A7D81;stroke-miterlimit:10;}.cls-2,.cls-3{stroke-width:4px;}.cls-4{stroke-width:2px;}</style></defs><g id="Layer_2" data-name="Layer 2"><g id="Layer_1-2" data-name="Layer 1"><path class="cls-1" d="M165.56,5A160.56,160.56,0,0,1,279.09,279.09,160.56,160.56,0,1,1,52,52,159.47,159.47,0,0,1,165.56,5m0-5A165.56,165.56,0,1,0,331.11,165.56,165.56,165.56,0,0,0,165.56,0Z"/><path class="cls-2" d="M203.18,241.49H147.25s-10.93,4.69,0,12.35c0,0-12.07,8.65.93,13.65,0,0-13,4,0,12h52.95s11.05-6,.05-13c0,0,13-6,0-12C201.18,254.49,214.18,247.49,203.18,241.49Z"/><path class="cls-3" d="M154.18,282.49h40a25.27,25.27,0,0,1-18,10S161.18,293.49,154.18,282.49Z"/><path class="cls-4" d="M165.81,235.59s11-111-10.08-88c0,0-29.67,25.84,22,33.5,0,0,34.46-3.83,23-26.8,0,0-21.06-53.61-15.31,84.24"/><path class="cls-2" d="M146.68,236h57.64s6.36,0,6.36-11c0,0,0-29,9-45,0,0,16-35,23-51,0,0,6-17,2-35,0,0-3-31-31-46,0,0-39.74-23-73.37,0,0,0-19.63,9-32.63,40,0,0-6,20,2,39,0,0,10,27,24,55-1.44-4.91,9.49,22.86,9,44C142.68,226,140.68,233,146.68,236Z"/></g></g></svg>