<?xml version="1.0" encoding="UTF-8"?>
<svg width="15px" height="14px" viewBox="0 0 15 14" version="1.1" xmlns="http://www.w3.org/2000/svg" xmlns:xlink="http://www.w3.org/1999/xlink">
    <title>rect3687</title>
    <g id="Symbols" stroke="none" stroke-width="1" fill="none" fill-rule="evenodd">
        <path d="M4.06205003,0 C1.82180001,0 0,1.82280735 0,4.06306008 L0,9.93795269 C0,12.1782 1.82180001,14 4.06205003,14 L9.97212888,14 C12.2123789,14 14.0341789,12.1782 14.0341789,9.93795269 L14.0341789,4.06306008 C14.0341789,1.82280735 12.2123789,0 9.97212888,0 L4.06205003,0 L4.06205003,0 Z M4.06205003,1.20354403 L9.97212888,1.20354403 C11.5665474,1.20354403 12.8316531,2.46865246 12.8316531,4.06306008 L12.8316531,9.93795269 C12.8316531,11.5323657 11.5665474,12.7964668 9.97212888,12.7964668 L4.06205003,12.7964668 C2.46763154,12.7964668 1.20353317,11.5323657 1.20353317,9.93795269 L1.20353317,4.06306008 C1.20353317,2.46865246 2.46763154,1.20354403 4.06205003,1.20354403 Z M10.7835332,2.40707177 C10.3186289,2.40707177 9.94196575,2.78373488 9.94196575,3.24863377 C9.94196575,3.71355167 10.3186289,4.09020935 10.7835332,4.09020935 C11.2484375,4.09020935 11.6251033,3.71355167 11.6251033,3.24863377 C11.6251033,2.78373488 11.2484375,2.40707177 10.7835332,2.40707177 Z M7.01708946,3.39542823 C5.0333469,3.39542823 3.41252311,5.01626287 3.41252311,7.00000272 C3.41252311,8.98374527 5.0333469,10.6045691 7.01708946,10.6045691 C9.00083201,10.6045691 10.6226604,8.98374527 10.6226604,7.00000272 C10.6226604,5.01626287 9.00083201,3.39542823 7.01708946,3.39542823 Z M7.01708946,4.59897226 C8.35050412,4.59897226 9.41912725,5.66659077 9.41912725,7.00000272 C9.41912725,8.33341738 8.35050412,9.40103589 7.01708946,9.40103589 C5.6836748,9.40103589 4.61605628,8.33341738 4.61605628,7.00000272 C4.61605628,5.66659077 5.6836748,4.59897226 7.01708946,4.59897226 Z" id="rect3687" fill="#FFFFFF" fill-rule="nonzero"></path>
    </g>
</svg>