<?xml version="1.0" encoding="UTF-8"?>
<svg width="19px" height="19px" viewBox="0 0 19 19" version="1.1" xmlns="http://www.w3.org/2000/svg" xmlns:xlink="http://www.w3.org/1999/xlink">
    <title>path4157</title>
    <g id="Symbols" stroke="none" stroke-width="1" fill="none" fill-rule="evenodd">
        <g id="FOOTER_Mobile" transform="translate(-239.000000, -366.000000)" fill="#FFFFFF" fill-rule="nonzero">
            <g id="Group-6" transform="translate(0.000000, 326.000000)">
                <g id="Group-5" transform="translate(62.000000, 39.000000)">
                    <path d="M178.365229,1.53846154 C177.611738,1.53846154 177,2.1290293 177,2.85934831 L177,18.6791132 C177,19.4096815 177.611738,20 178.365229,20 L194.096317,20 C194.849775,20 195.461538,19.4096815 195.461538,18.6791132 L195.461538,2.85934831 C195.461538,2.1290293 194.849775,1.53846154 194.096317,1.53846154 L178.365229,1.53846154 Z M181.219787,4.63765896 C182.173723,4.63765896 182.758222,5.25859376 182.776338,6.07675177 C182.776338,6.87689402 182.171488,7.51584819 181.199098,7.51584819 L181.183613,7.51584819 C180.24784,7.51584819 179.642572,6.87689402 179.642572,6.07675177 C179.642572,5.25859376 180.265967,4.63765896 181.219812,4.63765896 L181.219787,4.63765896 Z M189.442145,8.4615362 C191.276736,8.4615362 192.648356,9.65241477 192.648356,12.213466 L192.648356,16.9933198 L189.86102,16.9933198 L189.86102,12.5321213 C189.86102,11.4112321 189.458265,10.6458823 188.449254,10.6458823 C187.678937,10.6458823 187.218389,11.1656261 187.016803,11.6635249 C186.943173,11.8416667 186.928895,12.0876195 186.928895,12.3368163 L186.928895,16.9933198 L184.136398,16.9933198 C184.136398,16.9933198 184.172993,9.43922413 184.136398,8.65684475 L186.928895,8.65684475 L186.928895,9.83381502 C187.299565,9.26570644 187.963583,8.4615362 189.442145,8.4615362 L189.442145,8.4615362 Z M179.808021,8.65684475 L182.595343,8.65684475 L182.595343,16.9933198 L179.808021,16.9933198 L179.808021,8.65684475 Z" id="path4157"></path>
                </g>
            </g>
        </g>
    </g>
</svg>