<svg xmlns="http://www.w3.org/2000/svg" viewBox="0 0 329 329"><defs><style>.cls-1{fill:#7A7D81;}.cls-2{fill:none;stroke:#7A7D81;stroke-miterlimit:10;stroke-width:5px;}</style></defs><g id="Layer_2" data-name="Layer 2"><g id="Layer_1-2" data-name="Layer 1"><path class="cls-1" d="M164.5,5A159.5,159.5,0,0,1,277.28,277.28,159.5,159.5,0,1,1,51.72,51.72,158.43,158.43,0,0,1,164.5,5m0-5A164.5,164.5,0,1,0,329,164.5,164.5,164.5,0,0,0,164.5,0Z"/><path class="cls-2" d="M124.72,42.83s-16.71-15.12-35.41.4c0,0-11.93,9.15-11.53,41.38A125.13,125.13,0,0,0,81,118.82s7.16,32.23,11.54,36.61c0,0,4.37,7.16,6.76,8.75l37.4-9.55s-.4-15.52.79-17.9c0,0,2-12.34,4-14.72,0,0,3.18-7.17,3.58-11.54,0,0,1.2-5.68,0-15.17,0,0-2-21-7.16-31C137.85,64.32,133.87,51.19,124.72,42.83Z"/><path class="cls-2" d="M104,180.09l37.8-11.54s7.56,7.56,11.54,27.46c0,0,3.18,20.68-12.73,28.64,0,0-15.92,8-28.65-13.92a84.4,84.4,0,0,1-5.57-15.92S104,182.88,104,180.09Z"/><path class="cls-2" d="M198.9,109.1s16.71-15.12,35.41.4c0,0,11.94,9.15,11.54,41.38a125.63,125.63,0,0,1-3.18,34.21s-7.16,32.23-11.54,36.6c0,0-4.38,7.17-6.76,8.76L187,220.9s.4-15.52-.8-17.9c0,0-2-12.34-4-14.73,0,0-3.18-7.16-3.58-11.53,0,0-1.19-5.68,0-15.17,0,0,2-21,7.17-31C185.78,130.59,189.75,117.46,198.9,109.1Z"/><path class="cls-2" d="M219.59,246.36,181.8,234.82s-7.56,7.56-11.54,27.46c0,0-3.18,20.68,12.73,28.64,0,0,15.91,8,28.65-13.92a85.2,85.2,0,0,0,5.57-15.92S219.59,249.15,219.59,246.36Z"/></g></g></svg>