<svg xmlns="http://www.w3.org/2000/svg" viewBox="0 0 328 328"><defs><style>.cls-1{fill:#7A7D81;}.cls-2{fill:none;stroke:#7A7D81;stroke-miterlimit:10;stroke-width:5px;}</style></defs><g id="Layer_2" data-name="Layer 2"><g id="Layer_1-2" data-name="Layer 1"><path class="cls-1" d="M164,5A159,159,0,0,1,276.43,276.43,159,159,0,0,1,51.57,51.57,158,158,0,0,1,164,5m0-5A164,164,0,1,0,328,164,164,164,0,0,0,164,0Z"/><path class="cls-2" d="M147.07,29.76s-11.63-10.53-24.65.27c0,0-8.31,6.38-8,28.81a87.55,87.55,0,0,0,2.21,23.83s5,22.43,8,25.48c0,0,3,5,4.71,6.09l26-6.64s-.27-10.81.56-12.47c0,0,1.38-8.59,2.77-10.25,0,0,2.21-5,2.49-8a35.16,35.16,0,0,0,0-10.56s-1.38-14.65-5-21.57C156.22,44.72,153.45,35.57,147.07,29.76Z"/><path class="cls-2" d="M132.67,125.32l26.32-8s5.26,5.26,8,19.11c0,0,2.22,14.41-8.87,19.95,0,0-11.08,5.54-19.94-9.7a58.64,58.64,0,0,1-3.88-11.08S132.67,127.26,132.67,125.32Z"/><path class="cls-2" d="M212.21,86.69s11.63-10.53,24.65.27c0,0,8.31,6.37,8,28.81a87.27,87.27,0,0,1-2.22,23.82s-5,22.44-8,25.49c0,0-3.05,5-4.71,6.09l-26-6.65s.28-10.8-.55-12.46c0,0-1.39-8.59-2.77-10.25,0,0-2.22-5-2.5-8a35.21,35.21,0,0,1,0-10.57s1.39-14.64,5-21.57C203.07,101.64,205.84,92.5,212.21,86.69Z"/><path class="cls-2" d="M226.61,182.25l-26.31-8s-5.26,5.26-8,19.11c0,0-2.22,14.41,8.86,19.95,0,0,11.08,5.54,19.94-9.7A58.64,58.64,0,0,0,225,192.5S226.61,184.19,226.61,182.25Z"/><path class="cls-2" d="M144.22,176.24s-11.64-10.53-24.66.27c0,0-8.31,6.37-8,28.81a87.47,87.47,0,0,0,2.21,23.82s5,22.44,8,25.49c0,0,3,5,4.71,6.09l26-6.65s-.28-10.8.55-12.46c0,0,1.38-8.59,2.77-10.25,0,0,2.22-5,2.49-8a35.21,35.21,0,0,0,0-10.57s-1.38-14.64-5-21.57C153.36,191.19,150.59,182.05,144.22,176.24Z"/><path class="cls-2" d="M129.81,271.8l26.32-8s5.26,5.26,8,19.11c0,0,2.22,14.41-8.86,19.95,0,0-11.08,5.54-20-9.7a58.64,58.64,0,0,1-3.88-11.08S129.81,273.74,129.81,271.8Z"/></g></g></svg>