<svg xmlns="http://www.w3.org/2000/svg" viewBox="0 0 331.11 331.11"><defs><style>.cls-1{fill:#7A7D81;}.cls-2{fill:none;stroke:#7A7D81;stroke-miterlimit:10;stroke-width:5px;}</style></defs><g id="Layer_2" data-name="Layer 2"><g id="Layer_1-2" data-name="Layer 1"><path class="cls-1" d="M165.56,5A160.56,160.56,0,0,1,279.09,279.09,160.56,160.56,0,1,1,52,52,159.47,159.47,0,0,1,165.56,5m0-5A165.56,165.56,0,1,0,331.11,165.56,165.56,165.56,0,0,0,165.56,0Z"/><line class="cls-2" x1="5.48" y1="135.39" x2="135.98" y2="4.89"/><line class="cls-2" x1="6.98" y1="198.89" x2="199.48" y2="6.39"/><line class="cls-2" x1="30.21" y1="256.12" x2="256.71" y2="29.62"/><line class="cls-2" x1="69.7" y1="296.61" x2="296.2" y2="70.11"/><line class="cls-2" x1="124.45" y1="323.36" x2="323.45" y2="124.36"/><line class="cls-2" x1="200.38" y1="325.3" x2="324.88" y2="200.8"/><line class="cls-2" x1="95.5" y1="19.93" x2="95.5" y2="311.93"/><line class="cls-2" x1="237.5" y1="18.43" x2="237.5" y2="313.93"/></g></g></svg>