<svg xmlns="http://www.w3.org/2000/svg" viewBox="0 0 331.11 331.11"><defs><style>.cls-1{fill:#7A7D81;}.cls-2{fill:none;stroke:#7A7D81;stroke-miterlimit:10;stroke-width:5px;}</style></defs><g id="Layer_2" data-name="Layer 2"><g id="Layer_1-2" data-name="Layer 1"><path class="cls-1" d="M165.56,5A160.56,160.56,0,0,1,279.09,279.09,160.56,160.56,0,1,1,52,52,159.47,159.47,0,0,1,165.56,5m0-5A165.56,165.56,0,1,0,331.11,165.56,165.56,165.56,0,0,0,165.56,0Z"/><path class="cls-2" d="M254.6,303.71c.61-86.76,52.51-107.59,52.51-107.59-46.26-2.69-77.92,70.6-77.92,70.6,11.83-61,76.35-149.35,76.35-149.35-56.85,22.82-101.26,152.79-101.26,152.79,6.21-147.47-54.37-203.48-54.37-203.48,26.76,36.51,26.75,191.74,26.75,191.74C134.86,127.6,56.23,94.68,56.23,94.68c64,51.82,83.3,146.28,83.3,146.28-35.23-102.56-116-105.38-116-105.38,67.65,7.75,93.08,113.2,93.08,113.2-26.19-52.65-85.82-58.5-85.82-58.5s88.66,69.92,60,119.59"/></g></g></svg>