<svg xmlns="http://www.w3.org/2000/svg" viewBox="0 0 331.11 331.11"><defs><style>.cls-1{fill:#7A7D81;}.cls-2{fill:none;stroke:#7A7D81;stroke-miterlimit:10;stroke-width:5px;}</style></defs><g id="Layer_2" data-name="Layer 2"><g id="Layer_1-2" data-name="Layer 1"><path class="cls-1" d="M165.56,5A160.56,160.56,0,0,1,279.09,279.09,160.56,160.56,0,1,1,52,52,159.47,159.47,0,0,1,165.56,5m0-5A165.56,165.56,0,1,0,331.11,165.56,165.56,165.56,0,0,0,165.56,0Z"/><line class="cls-2" x1="95.5" y1="19.93" x2="95.5" y2="311.93"/><line class="cls-2" x1="237.5" y1="18.43" x2="237.5" y2="313.93"/><line class="cls-2" x1="3.38" y1="142.18" x2="95.88" y2="49.68"/><line class="cls-2" x1="5.67" y1="198.47" x2="95.45" y2="108.7"/><line class="cls-2" x1="20.67" y1="241.47" x2="95.67" y2="166.47"/><line class="cls-2" x1="44.17" y1="275.97" x2="95.67" y2="224.47"/><line class="cls-2" x1="95.1" y1="86.37" x2="179.33" y2="2.14"/><line class="cls-2" x1="95.55" y1="141.82" x2="223.78" y2="13.58"/><line class="cls-2" x1="95.55" y1="203.82" x2="237.28" y2="62.08"/><line class="cls-2" x1="96.28" y1="267.08" x2="236.78" y2="126.58"/><line class="cls-2" x1="102.28" y1="316.08" x2="237.28" y2="181.08"/><line class="cls-2" x1="146.73" y1="328.45" x2="236.69" y2="238.49"/><line class="cls-2" x1="237.74" y1="94.54" x2="281.74" y2="50.54"/><line class="cls-2" x1="237.58" y1="155.19" x2="306.98" y2="85.78"/><line class="cls-2" x1="237.62" y1="210.14" x2="322.98" y2="124.78"/><line class="cls-2" x1="237.36" y1="273.16" x2="327.36" y2="183.16"/></g></g></svg>