<svg xmlns="http://www.w3.org/2000/svg" viewBox="0 0 331 331"><defs><style>.cls-1,.cls-2{fill:none;}.cls-1,.cls-2,.cls-3,.cls-4{stroke:#7A7D81;stroke-miterlimit:10;}.cls-1{stroke-width:4px;}.cls-2{stroke-width:5px;}.cls-3,.cls-4{fill:#7A7D81;}.cls-4{stroke-width:3px;}</style></defs><title>Asset 5</title><g id="Layer_2" data-name="Layer 2"><g id="Layer_1-2" data-name="Layer 1"><path class="cls-1" d="M172.87,122.46S185,102.7,216.93,90.55c0,0,47.11-24.31,28.87,24.31,0,0-24.31,54.7-57.74,60.78"/><path class="cls-2" d="M188.06,163.48s9.12,36.47-42.54,30.39c0,0-41-6.08-65.34-76,0,0-36.46-69.9,34.95-36.47C115.13,81.43,180.47,104.22,188.06,163.48Z"/><path class="cls-3" d="M176.85,188.44a2,2,0,0,0-.56,2.31C180.61,200.76,205,263.4,144,272c0,0-4.43,1.06-.61,2.88a2.18,2.18,0,0,0,.72.18c5.54.33,69.42,2.35,35.93-85.8a2,2,0,0,0-3.15-.83Z"/><path class="cls-4" d="M178.53,192.09s-6.89-20.74-66.3-63.51c0,0-2.25-4.13,2.13-2.12C114.36,126.46,178.16,171.23,178.53,192.09Z"/><path class="cls-4" d="M185.47,145.39s23.95-10.33,31.16-24.84c0,0,2.41-4.15,2.4,0,0,0-4.82,12.45-31.17,26.92Z"/><circle class="cls-2" cx="165.5" cy="165.5" r="163"/></g></g></svg>