<?xml version="1.0" encoding="UTF-8"?>
<svg width="16px" height="16px" viewBox="0 0 19 19" version="1.1" xmlns="http://www.w3.org/2000/svg" xmlns:xlink="http://www.w3.org/1999/xlink">
    <title>path4173</title>
    <g id="Symbols" stroke="none" stroke-width="1" fill="none" fill-rule="evenodd">
        <g id="FOOTER_Mobile" transform="translate(-120.000000, -365.000000)" fill="#FFFFFF" fill-rule="nonzero">
            <g id="Group-6" transform="translate(0.000000, 326.000000)">
                <g id="Group-5" transform="translate(62.000000, 39.000000)">
                    <path d="M67.7692327,0 C62.6721546,0 58.5384615,4.13476443 58.5384615,9.2331549 C58.5384615,13.0237138 60.8246996,16.2765559 64.0912353,17.6980698 C64.0403764,16.989994 64.031384,16.1483913 64.1818752,15.5031101 C64.3590421,14.7393948 65.3267747,10.6360218 65.3267747,10.6360218 C65.3267747,10.6360218 65.0310086,10.04757 65.0310086,9.18066628 C65.0310086,7.81872952 65.823793,6.80438405 66.805605,6.80438405 C67.640749,6.80438405 68.0411444,7.43028244 68.0411444,8.18339038 C68.0411444,9.02156432 67.5071431,10.2794554 67.2301717,11.4424325 C66.9996571,12.4188852 67.7192308,13.2127158 68.6803815,13.2127158 C70.421051,13.2127158 71.7573065,11.3761622 71.7573065,8.72735798 C71.7573065,6.3832813 70.0748134,4.74780095 67.6690527,4.74780095 C64.8850332,4.74780095 63.2516382,6.83586548 63.2516382,8.99457241 C63.2516382,9.83552539 63.5742914,10.7390263 63.976745,11.2277067 C64.0575042,11.3255406 64.0726284,11.4102818 64.0483005,11.5092351 C63.9745419,11.8192311 63.8091261,12.4845801 63.7763849,12.621031 C63.7341936,12.7999189 63.6333522,12.8365161 63.4472281,12.7498649 C62.2244691,12.1809916 61.4627315,10.3961242 61.4627315,8.96117305 C61.4627315,5.87067769 63.7022898,3.03477757 67.926654,3.03477757 C71.3224326,3.03477757 73.9612397,5.4542132 73.9612397,8.68918729 C73.9612397,12.0620526 71.8323681,14.77782 68.8807376,14.77782 C67.8888649,14.77782 66.9594497,14.2606407 66.6386396,13.6517062 C66.6386396,13.6517062 66.1501676,15.5226221 66.0327972,15.9802751 C65.859606,16.6445203 65.4562719,17.4382766 65.097794,18.0654901 C65.9439652,18.3212126 66.8396532,18.4615385 67.7692327,18.4615385 C72.866307,18.4615385 77,14.3315454 77,9.2331549 C77,4.13476443 72.866307,0 67.7692327,0 L67.7692327,0 Z" id="path4173"></path>
                </g>
            </g>
        </g>
    </g>
</svg>