<?xml version="1.0" encoding="UTF-8"?>
<svg width="55px" height="55px" viewBox="0 0 55 55" version="1.1" xmlns="http://www.w3.org/2000/svg" xmlns:xlink="http://www.w3.org/1999/xlink">
    <title>Group</title>
    <g id="Desktop" stroke="none" stroke-width="1" fill="none" fill-rule="evenodd">
        <g id="20_InnovationsUSA_PDP-Not-Logged-In" transform="translate(-198.000000, -1237.000000)">
            <g id="description" transform="translate(0.000000, 894.000000)">
                <g id="Group-7" transform="translate(40.000000, 24.000000)">
                    <g id="Group-6" transform="translate(0.000000, 320.000000)">
                        <g id="Group-2" transform="translate(4.000000, 0.000000)">
                            <g id="Group" transform="translate(155.000000, 0.000000)">
                                <circle id="Oval-Copy-20" stroke="#7A7D81" stroke-width="1.30000007" cx="26.2014099" cy="26.2014099" r="23.2901421"></circle>
                                <rect id="Rectangle-Copy-8" stroke="#7A7D81" stroke-width="1.30000007" x="0" y="0" width="52.4028198" height="52.4028198"></rect>
                                <rect id="Rectangle" fill="#7A7D81" x="12.6901408" y="24.6338028" width="26.8732394" height="5.97183099"></rect>
                                <polygon id="Triangle" fill="#7A7D81" points="14.9295775 32.0985915 17.1690141 36.5774648 12.6901408 36.5774648"></polygon>
                                <polygon id="Triangle-Copy" fill="#7A7D81" points="19.4084507 32.0985915 21.6478873 36.5774648 17.1690141 36.5774648"></polygon>
                                <polygon id="Triangle-Copy-2" fill="#7A7D81" points="23.8873239 32.0985915 26.1267606 36.5774648 21.6478873 36.5774648"></polygon>
                                <polygon id="Triangle-Copy-3" fill="#7A7D81" points="28.3661972 32.0985915 30.6056338 36.5774648 26.1267606 36.5774648"></polygon>
                                <polygon id="Triangle-Copy-4" fill="#7A7D81" points="32.8450704 32.0985915 35.084507 36.5774648 30.6056338 36.5774648"></polygon>
                                <polygon id="Triangle-Copy-5" fill="#7A7D81" points="37.3239437 32.0985915 39.5633803 36.5774648 35.084507 36.5774648"></polygon>
                                <path d="M17.1690141,20.1713583 C18.1590295,21.4154898 19.2428351,22.0375555 20.4204308,22.0375555 C22.1868243,22.0375555 22.5162874,20.2548683 24.2137503,20.1713583 C25.9112132,20.0878483 25.9001891,22.0211268 27.7968489,22.0211268 C29.6935086,22.0211268 30.2260683,20.1549296 32.3516352,20.1549296 C33.7686799,20.1549296 34.6796371,20.528169 35.084507,21.2746479" id="Line-4" stroke="#7A7D81" stroke-width="3" stroke-linecap="square"></path>
                            </g>
                        </g>
                    </g>
                </g>
            </g>
        </g>
    </g>
</svg>