<?xml version="1.0" encoding="UTF-8"?>
<svg width="20px" height="23px" viewBox="0 0 20 23" version="1.1" xmlns="http://www.w3.org/2000/svg" xmlns:xlink="http://www.w3.org/1999/xlink">
    <title>Group</title>
    <g id="Symbols" stroke="none" stroke-width="1" fill="none" fill-rule="evenodd">
        <g id="Header" transform="translate(-1227.000000, -17.000000)">
            <g id="Group" transform="translate(1227.000000, 17.000000)">
                <path d="M19,6.61666667 L19.25,21.3666667 L1,21.6166667 L0.75,6.86666667 L19,6.61666667 Z" id="Rectangle-Copy-4" stroke="#7A7D81" stroke-width="1.5"></path>
                <path d="M6.60923963,5.86666667 C6.61931826,5.86666667 6.62947155,5.86666667 6.63884095,5.8659272 C6.9723317,5.84813897 7.2290382,5.53670107 7.21287506,5.17041955 C7.14755059,3.68002839 7.66088894,2.49663835 8.65938279,1.83818609 C9.70024423,1.15155201 11.1003156,1.15155201 12.141289,1.83818609 C13.1390363,2.4958578 13.6531212,3.67924785 13.5871248,5.17041955 C13.5716336,5.53670107 13.8283401,5.84813897 14.1611216,5.8659272 C14.4892371,5.88001811 14.7769261,5.60123991 14.7931265,5.23421892 C14.8800268,3.26038216 14.1395832,1.60689796 12.7617595,0.69780824 C11.3489592,-0.232725954 9.45171262,-0.232725954 8.03887498,0.698547704 C6.66041668,1.60685687 5.91997315,3.26034108 6.00687336,5.23421892 C6.02240192,5.59010686 6.28922438,5.86666667 6.60923963,5.86666667 Z" id="Shape-Copy-5" fill="#4D4D4D" fill-rule="nonzero"></path>
            </g>
        </g>
    </g>
</svg>