<svg xmlns="http://www.w3.org/2000/svg" viewBox="0 0 331.11 331.11"><defs><style>.cls-1{fill:#7A7D81;}.cls-2{fill:none;stroke:#7A7D81;stroke-miterlimit:10;stroke-width:2px;}</style></defs><g id="Layer_2" data-name="Layer 2"><g id="Layer_1-2" data-name="Layer 1"><path class="cls-1" d="M165.56,5A160.56,160.56,0,0,1,279.09,279.09,160.56,160.56,0,1,1,52,52,159.47,159.47,0,0,1,165.56,5m0-5A165.56,165.56,0,1,0,331.11,165.56,165.56,165.56,0,0,0,165.56,0Z"/><rect class="cls-2" x="67.56" y="62.26" width="202.5" height="202.5"/><path class="cls-1" d="M133.56,61.76v11h-65v-11h65m2-2h-69v15h69v-15Z"/><path class="cls-1" d="M163.56,61.76v11h-27v-11h27m2-2h-31v15h31v-15Z"/><path class="cls-1" d="M80.56,76.76v59h-12v-59h12m2-2h-16v63h16v-63Z"/><path class="cls-1" d="M106.56,75.76v60h-25v-60h25m2-2h-29v64h29v-64Z"/><path class="cls-1" d="M164.56,76.76v27h-54v-27h54m2-2h-58v31h58v-31Z"/><path class="cls-1" d="M200.56,61.76v42h-33v-42h33m2-2h-37v46h37v-46Z"/><path class="cls-1" d="M233.56,61.76v13h-29v-13h29m2-2h-33v17h33v-17Z"/><path class="cls-1" d="M269.56,61.76v45h-33v-45h33m2-2h-37v49h37v-49Z"/><path class="cls-1" d="M106.56,138.76v27h-38v-27h38m2-2h-42v31h42v-31Z"/><path class="cls-1" d="M138.56,106.76v59h-28v-59h28m2-2h-32v63h32v-63Z"/><path class="cls-1" d="M200.56,107.76v28h-58v-28h58m2-2h-62v32h62v-32Z"/><path class="cls-1" d="M233.56,77.76v58h-29v-58h29m2-2h-33v62h33v-62Z"/><path class="cls-1" d="M269.56,109.76v58h-33v-58h33m2-2h-37v62h37v-62Z"/><path class="cls-1" d="M139.56,168.76v32h-71v-32h71m2-2h-75v36h75v-36Z"/><path class="cls-1" d="M171.56,138.76v62h-29v-62h29m2-2h-33v66h33v-66Z"/><path class="cls-1" d="M232.56,138.76v28h-57v-28h57m2-2h-61v32h61v-32Z"/><path class="cls-1" d="M269.56,169.76v31h-58v-31h58m2-2h-62v35h62v-35Z"/><path class="cls-1" d="M207.56,169.76v59h-33v-59h33m2-2h-37v63h37v-63Z"/><path class="cls-1" d="M111.56,203.76v60h-31v-60h31m2-2h-35v64h35v-64Z"/><path class="cls-1" d="M170.56,203.76v24h-55v-24h55m2-2h-59v28h59v-28Z"/><path class="cls-1" d="M144.56,229.76v34h-30v-34h30m2-2h-34v38h34v-38Z"/><path class="cls-1" d="M207.56,230.76v31h-60v-31h60m2-2h-64v35h64v-35Z"/><path class="cls-1" d="M239.56,203.76v59h-28v-59h28m2-2h-32v63h32v-63Z"/><path class="cls-1" d="M269.56,204.76v26h-27v-26h27m2-2h-31v30h31v-30Z"/><path class="cls-1" d="M269.56,234.76v28h-26v-28h26m2-2h-30v32h30v-32Z"/></g></g></svg>