<?xml version="1.0" encoding="UTF-8"?><svg id="a" xmlns="http://www.w3.org/2000/svg" viewBox="0 0 328.03 328.03"><path d="M130.43,163.65s28.2,13.27,65.66-1.38" style="fill:none; stroke:#7a7d81; stroke-miterlimit:10; stroke-width:2px;"/><circle cx="164.01" cy="164.01" r="162.01" style="fill:none; stroke:#7a7d81; stroke-miterlimit:10; stroke-width:4px;"/><path d="M112.28,102.9l19.09,14.25s-2.51,34.08,0,88.42l-16.48,11.53s-4.91,2.9-.8,16.18c0,0,10.26,9.9,47.56,9.66,0,0,39.95,1.09,51.18-10.5,0,0,3.98-12.07-.72-15.45l-15.45-11.83s.3-76.1-3.63-87.77l20.25-14.48s3.58-3.99-1.59-13.66c0,0-3.45-6.89-43.6-5.96,0,0-51.15-.4-54.46,6.23,0,0-5.2,4.01-1.34,13.4Z" style="fill:none; stroke:#7a7d81; stroke-miterlimit:10; stroke-width:4px;"/><path d="M131.37,117.16s20.71,7.52,61.65,.22" style="fill:none; stroke:#7a7d81; stroke-miterlimit:10; stroke-width:4px;"/><path d="M131.37,205.58s21.59,16.38,65.28-.42" style="fill:none; stroke:#7a7d81; stroke-miterlimit:10; stroke-width:4px;"/><path d="M112.73,221.09s44.42,21.31,101.51,0" style="fill:none; stroke:#7a7d81; stroke-miterlimit:10; stroke-width:4px;"/><path d="M112.28,102.9s31.61,11.29,100.99,0" style="fill:none; stroke:#7a7d81; stroke-miterlimit:10; stroke-width:4px;"/><path d="M130.88,131.09s27.45,12.06,63.93-1.26" style="fill:none; stroke:#7a7d81; stroke-miterlimit:10; stroke-width:2px;"/><path d="M130.32,137.49s27.8,12.25,64.74-1.28" style="fill:none; stroke:#7a7d81; stroke-miterlimit:10; stroke-width:2px;"/><path d="M130.32,144.31s27.91,12.25,64.98-1.28" style="fill:none; stroke:#7a7d81; stroke-miterlimit:10; stroke-width:2px;"/><path d="M130.48,149.01s28.05,14.1,65.33-1.47" style="fill:none; stroke:#7a7d81; stroke-miterlimit:10; stroke-width:2px;"/><path d="M130.55,184.09s28.2,13.1,65.66-1.37" style="fill:none; stroke:#7a7d81; stroke-miterlimit:10; stroke-width:2px;"/><path d="M130.46,191.6s28.29,13.44,65.87-1.4" style="fill:none; stroke:#7a7d81; stroke-miterlimit:10; stroke-width:2px;"/><path d="M130.34,169.98s28.33,12.86,65.96-1.34" style="fill:none; stroke:#7a7d81; stroke-miterlimit:10; stroke-width:2px;"/><path d="M130.62,175.94s28.2,15.47,65.68-1.61" style="fill:none; stroke:#7a7d81; stroke-miterlimit:10; stroke-width:2px;"/><path d="M130.49,155.87s28.05,14.39,65.31-1.5" style="fill:none; stroke:#7a7d81; stroke-miterlimit:10; stroke-width:2px;"/></svg>