<?xml version="1.0" encoding="UTF-8"?>
<svg width="144px" height="128px" viewBox="0 0 144 128" version="1.1" xmlns="http://www.w3.org/2000/svg" xmlns:xlink="http://www.w3.org/1999/xlink">
    <!-- Generator: Sketch 51.3 (57544) - http://www.bohemiancoding.com/sketch -->
    <title>c</title>
    <desc>Created with Sketch.</desc>
    <defs></defs>
    <g id="Components" stroke="none" stroke-width="1" fill="none" fill-rule="evenodd">
        <g id="Inputs" transform="translate(-186.000000, -5016.000000)" fill="#7F8189">
            <g id="attach-copy" transform="translate(85.000000, 4881.000000)">
                <g id="Group-2-Copy-2" transform="translate(0.000000, 75.000000)">
                    <path d="M228.6875,114.578125 C233.562524,117.296889 237.45311,121.093726 240.359375,125.96875 C243.26564,130.843774 244.71875,136.187471 244.71875,142 C244.71875,146.312522 243.898446,150.390606 242.257812,154.234375 C240.617179,158.078144 238.367202,161.406236 235.507812,164.21875 C232.648423,167.031264 229.296894,169.281242 225.453125,170.96875 C221.609356,172.656258 217.531272,173.5 213.21875,173.5 L195.078125,173.5 C193.203116,173.5 191.609382,172.843757 190.296875,171.53125 C188.984368,170.218743 188.328125,168.625009 188.328125,166.75 C188.328125,164.874991 188.984368,163.281257 190.296875,161.96875 C191.609382,160.656243 193.203116,160 195.078125,160 L213.21875,160 C218.187525,160 222.42967,158.242205 225.945312,154.726562 C229.460955,151.21092 231.21875,146.968775 231.21875,142 C231.21875,137.96873 230.046887,134.382828 227.703125,131.242188 C225.359363,128.101547 222.265644,125.968756 218.421875,124.84375 C217.48437,124.562499 216.664066,124.117191 215.960938,123.507812 C215.257809,122.898434 214.718752,122.171879 214.34375,121.328125 C213.874998,120.484371 213.640625,119.570317 213.640625,118.585938 C213.640625,117.601558 213.828123,116.687504 214.203125,115.84375 C214.859378,113.968741 215.374998,112.093759 215.75,110.21875 C216.125002,108.343741 216.3125,106.421885 216.3125,104.453125 C216.3125,100.234354 215.515633,96.273456 213.921875,92.5703125 C212.328117,88.867169 210.148451,85.6328263 207.382812,82.8671875 C204.617174,80.1015487 201.359394,77.8984457 197.609375,76.2578125 C193.859356,74.6171793 189.875021,73.796875 185.65625,73.796875 C179.281218,73.796875 173.515651,75.6015445 168.359375,79.2109375 C163.203099,82.8203305 159.453137,87.62497 157.109375,93.625 C156.828124,94.4687542 156.359378,95.2187467 155.703125,95.875 C155.046872,96.5312533 154.343754,97.0468731 153.59375,97.421875 C152.749996,97.7968769 151.882817,97.984375 150.992188,97.984375 C150.101558,97.984375 149.234379,97.7968769 148.390625,97.421875 C143.984353,95.7343666 139.859394,96.2499864 136.015625,98.96875 C132.171856,101.687514 130.25,105.249978 130.25,109.65625 C130.25,110.687505 130.367186,111.67187 130.601562,112.609375 C130.835939,113.54688 131.187498,114.48437 131.65625,115.421875 C132.031252,116.35938 132.242187,117.320308 132.289062,118.304688 C132.335938,119.289067 132.171877,120.203121 131.796875,121.046875 C131.421873,121.98438 130.859379,122.781247 130.109375,123.4375 C129.359371,124.093753 128.51563,124.562499 127.578125,124.84375 C123.734356,125.968756 120.640637,128.124984 118.296875,131.3125 C115.953113,134.500016 114.78125,138.06248 114.78125,142 C114.78125,146.968775 116.539045,151.21092 120.054688,154.726562 C123.57033,158.242205 127.812475,160 132.78125,160 L150.921875,160 C152.796884,160 154.390618,160.656243 155.703125,161.96875 C157.015632,163.281257 157.671875,164.874991 157.671875,166.75 C157.671875,168.625009 157.015632,170.218743 155.703125,171.53125 C154.390618,172.843757 152.796884,173.5 150.921875,173.5 L132.78125,173.5 C128.468728,173.5 124.390644,172.656258 120.546875,170.96875 C116.703106,169.281242 113.375014,167.031264 110.5625,164.21875 C107.749986,161.406236 105.500008,158.078144 103.8125,154.234375 C102.124992,150.390606 101.28125,146.312522 101.28125,142 C101.28125,136.187471 102.73436,130.867212 105.640625,126.039062 C108.54689,121.210913 112.437476,117.437514 117.3125,114.71875 C117.124999,113.874996 116.984375,113.031254 116.890625,112.1875 C116.796875,111.343746 116.75,110.500004 116.75,109.65625 C116.75,102.343713 119.351536,96.0859635 124.554688,90.8828125 C129.757839,85.6796615 136.062463,83.078125 143.46875,83.078125 L145.226562,83.078125 C145.835941,83.078125 146.468747,83.1249995 147.125,83.21875 C149.000009,79.7499827 151.296861,76.5859518 154.015625,73.7265625 C156.734389,70.8671732 159.757796,68.4531348 163.085938,66.484375 C166.414079,64.5156152 169.999981,62.9921929 173.84375,61.9140625 C177.687519,60.8359321 181.62498,60.296875 185.65625,60.296875 C191.75003,60.296875 197.492161,61.4687383 202.882812,63.8125 C208.273464,66.1562617 212.960918,69.3202926 216.945312,73.3046875 C220.929707,77.2890824 224.070301,81.9765355 226.367188,87.3671875 C228.664074,92.7578395 229.8125,98.4999695 229.8125,104.59375 C229.8125,106.281258 229.718751,107.945304 229.53125,109.585938 C229.343749,111.226571 229.062502,112.890617 228.6875,114.578125 Z M190.296875,142.28125 L179.75,131.734375 L179.75,180.8125 C179.75,182.687509 179.093757,184.281243 177.78125,185.59375 C176.468743,186.906257 174.875009,187.5625 173,187.5625 C171.124991,187.5625 169.531257,186.906257 168.21875,185.59375 C166.906243,184.281243 166.25,182.687509 166.25,180.8125 L166.25,131.734375 L155.703125,142.28125 C154.390618,143.593757 152.796884,144.25 150.921875,144.25 C149.046866,144.25 147.453132,143.593757 146.140625,142.28125 C144.828118,140.968743 144.171875,139.398447 144.171875,137.570312 C144.171875,135.742178 144.828118,134.125007 146.140625,132.71875 L168.21875,110.78125 C168.593752,110.406248 168.945311,110.101564 169.273438,109.867188 C169.601564,109.632811 169.999998,109.421876 170.46875,109.234375 C171.312504,108.953124 172.179683,108.8125 173.070312,108.8125 C173.960942,108.8125 174.828121,108.953124 175.671875,109.234375 C176.046877,109.421876 176.421873,109.632811 176.796875,109.867188 C177.171877,110.101564 177.499999,110.406248 177.78125,110.78125 L199.859375,132.859375 C201.171882,134.171882 201.828125,135.742178 201.828125,137.570312 C201.828125,139.398447 201.171882,140.968743 199.859375,142.28125 C199.203122,142.937503 198.453129,143.429686 197.609375,143.757812 C196.765621,144.085939 195.921879,144.25 195.078125,144.25 C194.234371,144.25 193.390629,144.085939 192.546875,143.757812 C191.703121,143.429686 190.953128,142.937503 190.296875,142.28125 Z" id="c"></path>
                </g>
            </g>
        </g>
    </g>
</svg>