<svg xmlns="http://www.w3.org/2000/svg" viewBox="0 0 331.11 331.11"><defs><style>.cls-1{fill:none;}.cls-2{fill:none;stroke:#7A7D81;stroke-miterlimit:10;stroke-width:4px;}</style></defs><g id="Layer_2" data-name="Layer 2"><g id="Layer_1-2" data-name="Layer 1"><path class="cls-1" d="M165.56,5A160.56,160.56,0,0,1,279.09,279.09,160.56,160.56,0,1,1,52,52,159.47,159.47,0,0,1,165.56,5m0-5A165.56,165.56,0,1,0,331.11,165.56,165.56,165.56,0,0,0,165.56,0Z"/><path class="cls-2" d="M159.19,142.64s-2.41,7,.94,10.84c0,0,7.58,6.49,10.83,9.22l3.25,2.73a24.22,24.22,0,0,1,2.46,16.85,49.64,49.64,0,0,1-4.38,7.41L168.73,195l-30.21,33.73a16.87,16.87,0,0,1-15.86,2.37s-18.28-2.44-19.17-24.45a10,10,0,0,1,.65-4.07l31.69-39.87.91-1.08s.91-1.08-1.42-4.9c0,0-2.51-5.8-1.81-20.92,0,0-.57-.95-2.73.24,0,0-41.65,43.74-43.3,47.9,0,0-8.85,13.81-7.59,16.71,0,0-2,23.26,6.82,32.54,0,0,8.52,17.33,33,22.24,0,0,22.61,6.08,38-13.32l36.41-43.29s9.93-12.9,4.06-34.47c0,0-4.23-25.67-33.44-32.72,0,0-.6-.42-2,.17C162.74,131.82,158.94,139.65,159.19,142.64Z"/><path class="cls-2" d="M174,177s3-6.75,0-10.87c0,0-7-7.13-10-10.13l-3-3a24.19,24.19,0,0,1-1-17,48.88,48.88,0,0,1,5-7l4-5,33-31a16.85,16.85,0,0,1,16-1s18,4,17,26a10,10,0,0,1-1,4l-35,37-1,1s-1,1,1,5c0,0,2,6,0,21,0,0,.49,1,2.74,0,0,0,45.26-40,47.26-44,0,0,10-13,9-16,0,0,4-23-4-33,0,0-7-18-31-25,0,0-22-8-39,10l-40,40s-11,12-7,34c0,0,2,25.94,30.5,35.47,0,0,.57.47,2,0C169.52,187.44,174,180,174,177Z"/></g></g></svg>