<?xml version="1.0" encoding="UTF-8"?>
<svg width="54px" height="54px" viewBox="0 0 54 54" version="1.1" xmlns="http://www.w3.org/2000/svg" xmlns:xlink="http://www.w3.org/1999/xlink">
    <title>Group 9</title>
    <g id="Desktop" stroke="none" stroke-width="1" fill="none" fill-rule="evenodd">
        <g id="20_InnovationsUSA_PDP-Not-Logged-In" transform="translate(-121.000000, -1237.000000)" stroke="#7A7D81">
            <g id="description" transform="translate(0.000000, 894.000000)">
                <g id="Group-7" transform="translate(40.000000, 24.000000)">
                    <g id="Group-6" transform="translate(0.000000, 320.000000)">
                        <g id="Group-2" transform="translate(4.000000, 0.000000)">
                            <g id="Group-9" transform="translate(78.000000, 0.000000)">
                                <circle id="Oval-Copy-19" stroke-width="1.30000007" cx="25.5" cy="26.5" r="23.5"></circle>
                                <rect id="Rectangle-Copy-7" stroke-width="1.30000007" x="0" y="0" width="52" height="52"></rect>
                                <path d="M10.4782609,25.1639449 C11.9110776,24.6264417 13.6357153,24.4152943 15.6521739,24.5305027 C18.6768619,24.7033152 18.6086957,25.7973871 21.5652174,25.7973871 C24.5217391,25.7973871 24.8623457,24.5305027 27.4782609,24.5305027 C30.0941761,24.5305027 30.0652174,25.7973871 32.6521739,25.7973871 C35.2391304,25.7973871 36.0286235,24.658873 37.826087,24.5305027 C39.024396,24.4449224 40.25628,24.6560698 41.5217391,25.1639449 L37.826087,41 L14.173913,41 L10.4782609,25.1639449 Z M10.4782609,25.25 L9,20 M41.5217391,25.25 L43,20.75" id="Combined-Shape" stroke-width="1.3" stroke-linejoin="round"></path>
                            </g>
                        </g>
                    </g>
                </g>
            </g>
        </g>
    </g>
</svg>