<?xml version="1.0" encoding="UTF-8"?><svg id="Layer_1" xmlns="http://www.w3.org/2000/svg" viewBox="0 0 1080 1080"><defs><style>.cls-1{fill:none;stroke:#fa4616;stroke-miterlimit:10;stroke-width:18px;}.cls-2{fill:#fa4616;}</style></defs><circle class="cls-1" cx="541" cy="540" r="521"/><g><path class="cls-2" d="M432.64,996.13l-1.82,6.21-64.2-18.85,51.32-31.27c10.42-6.39,25.23-14.94,28.8-27.08,3.97-13.53-4.17-27.17-17.56-31.1-14.22-4.17-28.03,3.02-31.79,17.36l-6.63-1.95c2.47-7.37,5.43-13.4,12.29-17.84,8.06-4.98,18.98-6.42,27.96-3.79,17.26,5.07,27.35,22.28,22.24,39.67-4.09,13.94-18.05,22.14-29.9,29.31l-40.13,24.81,49.43,14.51Z"/><path class="cls-2" d="M543.38,960.23c-1.84,22.37-16.38,55.24-43.91,52.98-27.53-2.26-36.51-37.07-34.67-59.44,1.86-22.66,16.98-53.75,43.8-51.55,26.82,2.21,36.65,35.35,34.78,58.01Zm-6.88-.57c1.4-17.07-5.34-49.09-28.43-50.99-23.09-1.9-34.98,28.6-36.38,45.66-1.6,19.5,5.23,50.53,28.31,52.42,23.09,1.9,34.9-27.59,36.5-47.09Z"/><path class="cls-2" d="M632.05,999.72l.77,6.43-66.44,7.92,34.89-48.94c7.07-9.97,17.32-23.66,15.82-36.23-1.67-14-14.52-23.34-28.38-21.69-14.72,1.75-24.58,13.8-22.4,28.46l-6.86,.82c-.63-7.75-.27-14.46,4.28-21.23,5.45-7.75,14.92-13.37,24.21-14.48,17.86-2.13,33.91,9.73,36.05,27.73,1.72,14.43-7.88,27.46-15.96,38.71l-27.13,38.59,51.15-6.1Z"/><path class="cls-2" d="M650.9,896.53l1.08-7.19,19.65-6.58,34.46,102.87-6.55,2.19-32.4-96.73-16.24,5.44Z"/></g><g><path class="cls-2" d="M324.36,250.3l-57.42-97.44,19.52-11.5c7.37-4.34,14.65-7.94,23.51-6.19,8.99,1.67,15.45,7.61,20.02,15.36,5.25,8.92,5.65,17.56,.48,26.53,13.46-4.63,27.32,.27,34.63,12.68,4.64,7.88,5.86,16.74,2.83,25.49-3.42,9.85-9.97,15.28-18.63,20.38l-24.94,14.7Zm-25.17-56.9l10.73-6.32c6.59-3.88,12.12-6.62,15.31-13.9,3.2-7.28,1.98-13.18-1.98-19.9-3.73-6.33-9.84-11.09-17.46-11.3-6.74-.21-12.81,3.37-18.5,6.72l-10.73,6.32,22.62,38.38Zm27.95,47.43l14.86-8.76c6.85-4.04,14.11-7.97,17.69-15.47,3.58-7.51,3.62-15.72-.64-22.95-4.19-7.11-11.87-12.16-20.36-11.51-7.7,.53-15.91,5.2-22.38,9.01l-13.7,8.07,24.52,41.62Z"/><path class="cls-2" d="M363.87,109.99l13.57,38.79,43.04-15.06,2.23,6.37-43.04,15.06,17.09,48.85,44.18-15.46,2.23,6.37-50.97,17.83-37.35-106.76,50.97-17.83,2.23,6.37-44.18,15.46Z"/><path class="cls-2" d="M495.96,90.23c-6.21-7.28-14.1-11.44-24.64-9.9-12.02,1.75-19.67,12.72-17.96,24.45s13.56,15,23.24,17.98l23,8.02c9.24,4.11,14.54,10.31,16.01,20.4,2.71,18.55-12.18,34.97-30.29,37.61-15.58,2.27-29.16-5.6-36.46-19.24l5.82-3.73c6.48,11.18,16.45,18.22,29.96,16.25,14.69-2.14,25.92-15.6,23.75-30.45-1.84-12.62-15.53-16.08-25.87-19.42l-21.75-7.74c-8.09-3.52-13.2-9.44-14.5-18.35-2.42-16.62,7.74-30.08,24.51-32.53,11.28-1.65,22.85,2.88,29.6,11.75l-4.44,4.89Z"/><path class="cls-2" d="M557.53,183.49l-7.2-.24,3.5-106.29-29.23-.96,.22-6.75,65.67,2.16-.22,6.75-29.23-.96-3.5,106.29Z"/><path class="cls-2" d="M757.28,179.87c-11.91,29.48-46.64,43.77-76.12,31.86-29.49-11.91-44.55-46.3-32.64-75.79,11.91-29.48,46.5-43.82,76.12-31.86,29.49,11.91,44.55,46.3,32.64,75.79Zm-102.08-41.24c-10.45,25.87,2.34,56.27,28.49,66.83,26.01,10.5,56.52-2.57,66.92-28.29,10.45-25.87-2.48-56.33-28.49-66.83-26.15-10.56-56.47,2.43-66.92,28.29Z"/><path class="cls-2" d="M809.61,158.18l-23.87,33.46,30.41,21.69-3.92,5.5-30.41-21.69-33.97,47.63-5.86-4.18,65.68-92.08,37.13,26.48-3.92,5.5-31.26-22.3Z"/></g><rect class="cls-2" x="579" y="467" width="16" height="186"/><polygon class="cls-2" points="659 612 659 515.32 688.24 515.32 730 583 730 515.32 751 515 751 612 723 612 679 541 681.15 612 659 612"/><polygon class="cls-2" points="777 515 803.52 515 822 552 843.43 515 870 515 835 569 834.12 612 810.17 612 809 569 777 515"/><path class="cls-2" d="M421.77,467h-60.3l-.47,186,71-1s91,1,94-92c3.22-99.95-104.23-93-104.23-93Zm69.23,104c-7.73,49.84-48.7,50.95-60.07,50.27-2.76-.17-5.53-.27-8.29-.27h-27.64v-124h35.64c19.02,0,37.25,8.46,48.89,23.51,8.82,11.4,15.01,27.7,11.47,50.49Z"/><path class="cls-2" d="M342,571c-5.34-7.1-15.69-13.68-24.56-14.29-3.81-.26-5.44,.24-5.44-.71,0-2,6-4,6-4,0,0,27-8,26-42-.67-22.88-19.46-33.53-31.68-38.05-5.22-1.93-10.73-2.95-16.3-3.08l-81.02-1.86h0s0,186.37,0,186.37l61.33-.38s62.67,0,71.67-35c4.61-17.94-.24-39.36-6-47Zm-94-74h31c6.55,0,15.21-.57,21,3,5.79,3.57,9.55,11.55,10,21s-3.34,14.8-9,19c-6.23,4.62-15.1,5-22.86,5h-30.14v-48Zm60,124c-6.23,4.62-24.24,5-32,5h-28v-55h31c6.55,0,21.43,.56,27,4,5.79,3.57,12.55,12.55,13,22s-5.34,19.8-11,24Z"/></svg>