<?xml version="1.0" encoding="UTF-8"?><svg id="a" xmlns="http://www.w3.org/2000/svg" width="1080" height="1080" viewBox="0 0 1080 1080"><circle cx="541" cy="540" r="521" fill="none" stroke="#fa4616" stroke-miterlimit="10" stroke-width="18"/><g><path d="M435.24,970.36l-1.97,6.25-64.55-20.33,52.53-30.61c10.67-6.25,25.82-14.61,29.67-26.82,4.29-13.6-3.67-27.56-17.14-31.8-14.3-4.5-28.41,2.5-32.5,16.93l-6.66-2.1c2.64-7.41,5.76-13.44,12.78-17.79,8.25-4.88,19.33-6.12,28.35-3.28,17.35,5.46,27.22,23.07,21.7,40.56-4.42,14.02-18.7,22.04-30.83,29.05l-41.08,24.29,49.7,15.65Z" fill="#fa4616"/><path d="M543.82,934.37c-2.06,22.61-17.07,55.75-44.9,53.25s-36.6-37.77-34.53-60.38c2.09-22.9,17.67-54.23,44.77-51.8,27.11,2.43,36.76,36.03,34.66,58.93Zm-6.96-.62c1.57-17.25-4.96-49.69-28.3-51.78-23.34-2.1-35.65,28.65-37.22,45.9-1.8,19.71,4.83,51.14,28.17,53.23,23.34,2.1,35.55-27.64,37.35-47.35Z" fill="#fa4616"/><path d="M629.43,974.12l.81,6.5-67.17,8.23,35.05-49.6c7.1-10.11,17.41-23.98,15.83-36.69-1.76-14.15-14.8-23.55-28.82-21.83-14.88,1.82-24.8,14.04-22.52,28.86l-6.93,.85c-.68-7.83-.35-14.62,4.23-21.49,5.48-7.86,15.03-13.57,24.42-14.72,18.06-2.21,34.35,9.72,36.61,27.92,1.81,14.59-7.84,27.79-15.96,39.2l-27.26,39.12,51.71-6.34Z" fill="#fa4616"/><path d="M643.23,870.56l.99-7.29,19.77-6.95,36.38,103.53-6.59,2.32-34.21-97.36-16.34,5.74Z" fill="#fa4616"/></g><g><path d="M331.69,273.52l-52.62-96.04,19.23-10.54c7.26-3.98,14.42-7.24,22.94-5.28,8.65,1.89,14.72,7.83,18.91,15.48,4.81,8.79,4.93,17.17-.34,25.69,13.17-4.07,26.43,1.09,33.13,13.32,4.26,7.77,5.17,16.38,1.97,24.76-3.61,9.43-10.12,14.48-18.65,19.16l-24.58,13.47Zm-22.64-55.83l10.57-5.79c6.5-3.56,11.93-6.04,15.24-12.99,3.31-6.95,2.32-12.7-1.31-19.32-3.42-6.24-9.19-11.03-16.55-11.47-6.52-.41-12.5,2.87-18.11,5.94l-10.57,5.79,20.73,37.83Zm25.61,46.75l14.65-8.02c6.75-3.7,13.9-7.28,17.59-14.44,3.7-7.16,3.98-15.1,.08-22.23-3.84-7-11.12-12.13-19.36-11.75-7.46,.28-15.56,4.55-21.93,8.04l-13.5,7.4,22.47,41.02Z" fill="#fa4616"/><path d="M373.45,138.97l12.31,37.84,41.99-13.66,2.02,6.22-41.99,13.66,15.5,47.65,43.09-14.02,2.02,6.22-49.72,16.18-33.88-104.14,49.72-16.18,2.02,6.22-43.09,14.02Z" fill="#fa4616"/><path d="M501.09,122.18c-5.93-7.12-13.51-11.25-23.73-9.89-11.66,1.55-19.2,12.07-17.69,23.45,1.51,11.38,12.94,14.69,22.28,17.7l22.17,8.05c8.9,4.09,13.95,10.16,15.25,19.96,2.39,18-12.23,33.71-29.8,36.04-15.12,2.01-28.17-5.79-35.06-19.08l5.68-3.54c6.14,10.91,15.7,17.84,28.81,16.1,14.25-1.89,25.29-14.79,23.38-29.19-1.62-12.24-14.84-15.76-24.81-19.12l-20.96-7.77c-7.79-3.51-12.66-9.31-13.81-17.95-2.14-16.13,7.87-29.03,24.14-31.19,10.94-1.45,22.09,3.07,28.52,11.75l-4.36,4.68Z" fill="#fa4616"/><path d="M559.78,212.92l-6.97-.26,3.83-102.91-28.3-1.05,.24-6.53,63.57,2.36-.24,6.53-28.3-1.05-3.83,102.91Z" fill="#fa4616"/><path d="M753.45,208.07c-11.17,28.69-44.62,42.95-73.32,31.77-28.69-11.17-43.7-44.29-32.53-72.99,11.17-28.69,44.49-43,73.32-31.77,28.69,11.17,43.7,44.29,32.53,72.99Zm-99.35-38.68c-9.8,25.17,2.96,54.46,28.4,64.37,25.31,9.85,54.7-3.17,64.45-28.21,9.8-25.17-3.09-54.51-28.4-64.37-25.45-9.91-54.65,3.04-64.45,28.21Z" fill="#fa4616"/><path d="M803.36,185.66l-22.34,32.94,29.93,20.3-3.67,5.41-29.93-20.3-31.8,46.88-5.77-3.91,61.47-90.63,36.54,24.78-3.67,5.41-30.77-20.87Z" fill="#fa4616"/></g><g><rect x="601.7" y="416.86" width="21.35" height="248.19" fill="#fa4616"/><polygon points="708.45 610.34 708.45 481.34 747.47 481.34 803.19 571.64 803.19 481.34 831.21 480.91 831.21 610.34 793.85 610.34 735.14 515.6 738.01 610.34 708.45 610.34" fill="#fa4616"/><polygon points="865.91 480.91 901.3 480.91 925.95 530.28 954.54 480.91 990 480.91 943.3 552.96 942.12 610.34 910.17 610.34 908.6 552.96 865.91 480.91" fill="#fa4616"/><path d="M391.9,416.86h-80.46l-.62,248.19,94.74-1.33s121.43,1.33,125.43-122.76c4.3-133.37-139.08-124.09-139.08-124.09Zm92.38,138.77c-10.32,66.51-64.99,67.98-80.16,67.08-3.68-.22-7.37-.36-11.06-.36h-36.89v-165.46h47.56c25.38,0,49.7,11.3,65.24,31.37,11.76,15.21,20.02,36.96,15.3,67.37Z" fill="#fa4616"/><path d="M285.46,555.63c-7.13-9.47-20.94-18.25-32.77-19.06-5.08-.35-7.26,.32-7.26-.95,0-2.67,8.01-5.34,8.01-5.34,0,0,36.03-10.67,34.69-56.04-.9-30.53-25.97-44.75-42.27-50.78-6.97-2.58-14.32-3.94-21.74-4.11l-108.12-2.49v248.7l81.84-.51s83.62,0,95.63-46.7c6.16-23.94-.32-52.52-8.01-62.71Zm-125.43-98.74h41.36c8.74,0,20.59-.59,28.02,4,7.72,4.77,12.74,15.42,13.34,28.02,.6,12.61-4.46,19.75-12.01,25.35-8.32,6.16-20.15,6.67-30.5,6.67h-40.22v-64.05Zm80.06,165.46c-8.32,6.16-32.35,6.67-42.7,6.67h-37.36v-73.39h41.36c8.74,0,28.59,.75,36.03,5.34,7.72,4.77,16.75,16.75,17.35,29.36,.6,12.61-7.13,26.43-14.68,32.02Z" fill="#fa4616"/></g></svg>
