<?xml version="1.0" encoding="UTF-8"?><svg id="Layer_1" xmlns="http://www.w3.org/2000/svg" viewBox="0 0 1080 1080"><defs><style>.cls-1{fill:none;stroke:#fa4616;stroke-miterlimit:10;stroke-width:18px;}.cls-2{fill:#fa4515;}</style></defs><circle class="cls-1" cx="541" cy="540" r="521"/><g><path class="cls-2" d="M148.09,283.38l14.12-16.74c11.22-13.3,25.48-14.61,36.94-4.94,8.25,6.96,10.35,15.41,9.19,23.06,10.02-8.62,22.64-7.98,32.49,.33,13.41,11.32,13.12,27.95,1.41,41.82l-17.7,20.98-76.47-64.52Zm38.88,24.17l10.25-12.15c3.29-3.9,5.54-7.49,5.59-13.14,.09-5.22-2.16-10.46-7.44-14.91-6.08-5.13-12.08-5.68-16.28-4.9-6.17,1.27-10.56,6-13.95,10.02l-8.22,9.74,30.04,25.34Zm37.26,31.44l10.83-12.84c4.35-5.16,9.67-11.46,9.44-20.49-.19-7.22-3.98-11.8-7.53-14.8-6.88-5.8-13.61-7.36-21.08-3.86-2.66,1.29-7.11,4.01-14.27,12.49l-10.06,11.92,32.67,27.57Z"/><path class="cls-2" d="M249.5,190.6l-31.69,26.64,23.36,27.79,31-26.06,3.86,4.59-31,26.06,29.44,35.02,31.69-26.64,3.86,4.59-36.74,30.89-64.38-76.58,36.74-30.89,3.86,4.59Z"/><path class="cls-2" d="M319.45,159.46c-11.37-7.24-20.84-2.04-23.17-.67-10.22,5.99-11.72,16.78-6.64,25.45,5.46,9.32,13.75,8.63,24.93,7.82,10.97-.87,16.3-1.56,22.52-1.03,5.27,.39,13.36,1.73,18.97,11.31,8.5,14.49,2.63,32.36-12.12,41.01-11.13,6.52-19.93,4.56-25.37,2.7-5.64-1.91-9.04-4.44-11.1-6.19l3.55-5.21c3.14,2.68,7.31,4.76,9.51,5.55,6.76,2.64,14.55,1.38,20.5-2.11,11.65-6.83,15.83-20.75,9.15-32.14-2.73-4.66-7.42-8.51-16.38-8.66-3.29,.02-9.86,.39-19.02,1.07-10.97,.87-16.6,1.04-22.46-2.13-3.84-2.1-6.51-4.88-8.48-8.24-5.84-9.96-5.86-25.42,9.54-34.45,8.67-5.08,18.99-5.57,28.17,0l-2.09,5.92Z"/><path class="cls-2" d="M363.35,127.67l35.17,87.23-6.12,2.47-35.17-87.23-24.07,9.7-2.24-5.56,54.26-21.88,2.24,5.56-24.07,9.7Z"/><path class="cls-2" d="M553.1,134.43c2.8,28.66-17.54,53.41-46.66,56.25-29.26,2.86-53.85-17.5-56.65-46.17-2.8-28.66,17.53-53.56,46.64-56.4,29.11-2.84,53.87,17.65,56.67,46.32Zm-6.87,.67c-2.49-25.53-23.54-43.52-49.22-41.01-25.68,2.51-42.85,24.23-40.36,49.76,2.48,25.38,23.52,43.37,49.2,40.86,25.68-2.51,42.85-24.23,40.37-49.61Z"/><path class="cls-2" d="M621.79,98.69l-33.69-3.75-4.01,36.08,32.8,3.65-.66,5.96-32.8-3.65-5.72,51.43-6.56-.73,11.05-99.44,40.25,4.47-.66,5.96Z"/><path class="cls-2" d="M690.61,169.6l-11.21-65.09,7.04,2.57,9.71,57.36,44.95-37.4,7.04,2.57-51.35,42.25-14.66,40.16-6.2-2.26,14.66-40.16Z"/><path class="cls-2" d="M809.55,170.46l-35.98-20.48-17.96,31.55,35.2,20.03-2.97,5.21-35.2-20.03-22.63,39.76,35.98,20.48-2.97,5.21-41.72-23.74,49.49-86.96,41.72,23.74-2.97,5.22Z"/><path class="cls-2" d="M835.77,268.1l-32.68-27.32-31.31,16.64-5.52-4.62,98.43-52.02-34.22,105.71-5.52-4.62,10.83-33.76Zm2.01-6.14l16.02-48.39-45.02,24.15,29,24.24Z"/><path class="cls-2" d="M861.9,345.92l15.6-55.13-1.92-2.31-36.32,30.22-4.22-5.07,76.91-63.99,9.21,11.07c4.89,5.88,8.85,11.57,9.61,19.52,.84,9.45-3.87,16.69-9.87,21.68-7.61,6.33-18.23,9.51-29.42,2.63-4.74-2.88-7.93-6.48-9.37-8.21l-15.4,55.36-4.8-5.76Zm18.29-61.27l6.14,7.38c9.11,10.95,20.35,12.73,30.26,4.48,7.72-6.43,8.59-13.59,7.71-17.93-.84-4.76-4.99-10.68-7.48-13.68l-5.28-6.34-31.36,26.1Z"/></g><g><path class="cls-2" d="M362.45,978.23l51.72-32.94c4.67-3.06,9.9-6.31,15.15-10.88,4.18-3.7,8.9-8.75,10.89-16.05,3.56-13.05-3.42-25.97-17.71-29.87-5.59-1.53-12.81-2-19.94,2.73-4.04,2.57-8.6,7.66-10.68,15.28l-6.83-1.87c2.54-9.32,8.19-15.96,14.17-19.5,5.78-3.43,14.26-5.79,25.45-2.73,17.86,4.88,27.27,21.13,22.69,37.91-2.42,8.85-7.7,14.75-13.27,19.24-3.22,2.63-8.38,6.22-12.22,8.68l-43.29,27.73,49.39,13.49-1.7,6.21-63.83-17.43Z"/><path class="cls-2" d="M530.15,910.65c7.69,10.52,12.02,25.33,10.84,43-1.18,17.67-7.45,31.78-16.46,41.18-8.32,8.64-17.91,12.04-26.1,11.49-8.19-.55-17.24-5.19-24.34-14.86-7.69-10.52-12.02-25.33-10.85-43s7.45-31.78,16.47-41.18c9.37-9.86,19.18-11.79,26.09-11.33,6.91,.46,16.38,3.68,24.35,14.7Zm-10.64,79.65c7.48-8.05,12.96-20.11,14.1-37.14,1.15-17.19-2.7-29.71-9.04-38.69-3.53-5.08-9.72-11.46-19.2-12.09-9.48-.63-16.46,4.87-20.64,9.43-7.48,8.05-12.95,19.95-14.1,37.14-1.14,17.03,2.7,29.71,9.04,38.69,7.22,10.33,15.5,12.01,19.19,12.25s12.12-.32,20.65-9.59Z"/><path class="cls-2" d="M560.84,1006.18l35.62-49.92c3.19-4.59,6.82-9.56,9.97-15.77,2.49-5,4.97-11.45,4.09-18.96-1.58-13.43-12.9-22.8-27.61-21.06-5.76,.68-12.62,2.95-17.46,10-2.78,3.89-5.1,10.33-4.18,18.16l-7.04,.83c-1.13-9.59,1.62-17.86,5.83-23.39,4.07-5.34,11.06-10.71,22.57-12.06,18.39-2.17,33.21,9.38,35.24,26.65,1.07,9.11-1.61,16.56-5.09,22.81-2,3.64-5.43,8.91-8.08,12.62l-29.75,41.93,50.85-6,.75,6.4-65.72,7.75Z"/><path class="cls-2" d="M645.17,889.79l-16.14,4.46,1.39-7.06,19.86-5.49,28.62,103.5-6.83,1.89-26.9-97.29Z"/></g><path class="cls-2" d="M540,767h8c4.7-.39,6.31-3.61,9.96-6.59,7.13-5.82,11.44-9.61,17.04-14.41l12.5-12.5s7.29-7.05,0-10.23c-7.5-3.27,14.5-5.27,.5-14.27s14-5-3-16c-5.94-3.84,17-4,3-14-7-5,1.71-7.33,3.61-16.92s1-22.92,4.39-37.08c6-25,40-57,54-81,41.37-70.92,19.88-154.52-24-189-42-33-85-32-85-32,0,0-44-1-86,32-43.88,34.48-65.37,118.08-24,189,14,24,48,56,54,81,3.4,14.16,2.5,27.5,4.39,37.08,1.89,9.58,10.61,11.92,3.61,16.92-14,10,8.94,10.16,3,14-17,11,11,7-3,16s8,11,.5,14.27,0,10.23,0,10.23l12.5,12.5c5.6,4.8,9.91,8.59,17.04,14.41,3.66,2.99,5.26,6.2,9.96,6.59h8"/></svg>