<?xml version="1.0" encoding="UTF-8"?><svg id="a" xmlns="http://www.w3.org/2000/svg" width="1080" height="1080" viewBox="0 0 1080 1080"><circle cx="541" cy="540" r="521" fill="none" stroke="#fa4616" stroke-miterlimit="10" stroke-width="18"/><g><path d="M242.11,374.02l-82.25-54.55,10.92-16.47c4.12-6.22,8.47-11.82,16.09-13.83,7.69-2.12,15.03,.07,21.58,4.41,7.53,4.99,11.14,11.63,10.51,20.63,8.8-8.77,21.54-10.22,32.01-3.27,6.65,4.41,10.99,10.9,11.95,18.92,1.07,9.04-2,15.8-6.84,23.11l-13.96,21.05Zm-41.47-35.04l6-9.05c3.69-5.56,6.98-9.82,6.71-16.75-.27-6.93-3.48-11.1-9.15-14.86-5.35-3.55-11.96-4.94-18.01-2.21-5.37,2.41-8.77,7.54-11.95,12.34l-6,9.05,32.4,21.49Zm40.04,26.55l8.32-12.54c3.83-5.78,8.03-11.64,7.98-18.9-.05-7.26-3.16-13.72-9.26-17.77-6-3.98-13.95-5.01-20.37-1.26-5.84,3.35-10.5,10.16-14.12,15.61l-7.67,11.56,35.13,23.3Z" fill="#fa4616"/><path d="M219.06,249.11l25.67,25.06,27.8-28.48,4.22,4.12-27.8,28.48,32.32,31.55,28.53-29.23,4.22,4.12-32.92,33.73-70.64-68.95,32.92-33.73,4.22,4.11-28.53,29.23Z" fill="#fa4616"/><path d="M314.1,182.28c-7.71-3.22-15.48-3.36-23.09,1.99-8.67,6.1-10.31,17.65-4.37,26.11,5.95,8.46,16.46,6.35,25.18,4.86l21.07-2.81c8.81-.44,15.38,2.31,20.5,9.59,9.41,13.39,4.28,32.04-8.79,41.22-11.24,7.9-24.92,7.12-35.97-.64l3.07-5.2c9.45,6.16,19.99,7.71,29.73,.86,10.6-7.45,14.05-22.36,6.52-33.07-6.4-9.1-18.43-6.41-27.8-4.94l-19.99,2.53c-7.69,.44-14-2.16-18.52-8.58-8.43-11.99-5.81-26.48,6.29-34.99,8.14-5.72,18.94-6.75,27.69-2.5l-1.53,5.56Z" fill="#fa4616"/><path d="M399.84,229.9l-5.64,2.77-40.97-83.28-22.91,11.27-2.6-5.29,51.45-25.31,2.6,5.29-22.91,11.27,40.97,83.28Z" fill="#fa4616"/><path d="M551.83,146.3c2.93,27.6-17.95,52.85-45.54,55.79s-53.32-17.37-56.25-44.97c-2.93-27.6,17.82-52.84,45.54-55.79,27.6-2.93,53.32,17.37,56.25,44.97Zm-95.55,10.15c2.57,24.21,24.91,42.38,49.38,39.77,24.34-2.59,42.48-25.18,39.92-49.26-2.57-24.21-25.04-42.36-49.38-39.77-24.47,2.6-42.49,25.05-39.92,49.26Z" fill="#fa4616"/><path d="M582.68,107.8l-4.34,35.6,32.36,3.95-.71,5.85-32.36-3.95-6.18,50.68-6.24-.76,11.95-97.98,39.5,4.82-.71,5.85-33.27-4.06Z" fill="#fa4616"/><path d="M682.46,121.54l6.38,2.72,7.14,57.4,46.33-34.62,6.38,2.72-52.39,39.15-16.52,38.78-5.78-2.46,16.52-38.78-8.07-64.9Z" fill="#fa4616"/><path d="M770.87,170.45l-19.89,29.85,33.12,22.07-3.27,4.9-33.12-22.07-25.04,37.59,33.99,22.65-3.27,4.9-39.22-26.13,54.73-82.15,39.22,26.13-3.27,4.9-33.99-22.65Z" fill="#fa4616"/><path d="M793.62,261.95l-32.35,13.5-4.52-4.55,101.5-42.52-43.29,101.12-4.52-4.55,13.72-32.26-30.54-30.74Zm53.3-22.32l-47.46,19.84,27.21,27.4,20.25-47.23Z" fill="#fa4616"/><path d="M843.48,375.37l-3.97-6.01,21.24-52.63-1.73-2.62-38.99,25.76-3.46-5.24,82.36-54.41,6.78,10.27c4.4,6.66,8.62,13.29,8.26,21.53-.25,8.64-5.22,15.37-12.21,19.99-14.31,9.45-28.3,4.42-37.11-9.38l-21.17,52.74Zm24.86-57.85c3.39,5.13,7,10.12,13.35,11.89,5.77,1.84,11.91,.45,16.82-2.8,6.12-4.04,10.36-10.92,9.08-18.55-.81-5.74-4.71-11.17-7.88-15.97l-2.24-3.39-33.53,22.15,4.4,6.66Z" fill="#fa4616"/></g><g><path d="M427.44,966.51l-1.96,5.93-61.27-20.28,50.49-28.46c10.26-5.82,24.81-13.57,28.64-25.17,4.27-12.92-3.13-26.33-15.92-30.56-13.57-4.49-27.12,1.99-31.21,15.69l-6.32-2.09c2.62-7.03,5.68-12.74,12.42-16.8,7.93-4.54,18.51-5.57,27.07-2.73,16.47,5.45,25.64,22.38,20.15,38.98-4.4,13.31-18.12,20.76-29.78,27.28l-39.49,22.6,47.17,15.62Z" fill="#fa4616"/><path d="M531.43,933.74c-2.23,21.54-16.93,52.93-43.43,50.15-26.51-2.78-34.45-36.54-32.22-58.08,2.26-21.81,17.47-51.48,43.29-48.77,25.81,2.71,34.62,34.89,32.36,56.7Zm-6.63-.7c1.7-16.43-4.15-47.47-26.38-49.79-22.23-2.33-34.32,26.82-36.02,43.25-1.94,18.77,4.01,48.85,26.24,51.17,22.23,2.33,34.22-25.86,36.16-44.63Z" fill="#fa4616"/><path d="M612.56,972.41l.7,6.21-64.13,7.27,33.93-47.01c6.88-9.58,16.84-22.72,15.47-34.86-1.53-13.52-13.87-22.59-27.25-21.07-14.21,1.61-23.79,13.17-21.77,27.33l-6.62,.75c-.57-7.48-.18-13.95,4.25-20.46,5.3-7.45,14.47-12.82,23.44-13.83,17.24-1.96,32.65,9.57,34.62,26.94,1.58,13.93-7.76,26.44-15.62,37.25l-26.4,37.08,49.38-5.6Z" fill="#fa4616"/><path d="M626.61,873.71l1-6.95,18.91-6.48,33.79,99.04-6.3,2.16-31.77-93.13-15.62,5.36Z" fill="#fa4616"/></g><path d="M542.41,801h9.42c5.54-.46,7.43-4.25,11.73-7.76,8.39-6.85,13.48-11.32,20.07-16.97l14.72-14.72s8.58-8.31,0-12.05,17.08-6.21,.59-16.81c-16.49-10.6,16.49-5.89-3.53-18.85-6.99-4.52,20.02-4.71,3.53-16.49-8.25-5.89,2.01-8.64,4.25-19.93,2.23-11.29,1.17-27,5.18-43.68,7.07-29.45,47.12-67.14,63.61-95.41,48.73-83.53,23.42-182.02-28.27-222.63-49.47-38.87-100.12-37.69-100.12-37.69,0,0-51.83-1.18-101.3,37.69s-77,139.09-28.27,222.63c16.49,28.27,56.54,65.96,63.61,95.41,4,16.68,2.94,32.39,5.18,43.68s12.49,14.04,4.25,19.93c-16.49,11.78,10.53,11.97,3.53,16.49-20.02,12.96,12.96,8.25-3.53,18.85-16.49,10.6,9.42,12.96,.59,16.81s0,12.05,0,12.05l14.72,14.72c6.59,5.65,11.68,10.12,20.07,16.97,4.31,3.52,6.19,7.3,11.73,7.76h9.42" fill="#fa4515"/></svg>
