<?xml version="1.0" encoding="UTF-8"?><svg id="a" xmlns="http://www.w3.org/2000/svg" width="1080" height="1080" viewBox="0 0 1080 1080"><ellipse cx="537.5" cy="536.5" rx="517.5" ry="517.25" fill="none" stroke="#75787b" stroke-miterlimit="10" stroke-width="18"/><g><g><path d="M881.23,441.35c41.45,56.66,71.51,126.18,64.84,197.67-6.21,66.57-47.51,127.45-106.68,158.3-34.5,17.99-73.83,25.5-112.54,22.01-4.31-.39-8,3.96-8,8,0,4.65,3.68,7.61,8,8,72.93,6.58,146.06-25.32,190.73-83.29,21.13-27.43,35.97-60,41.96-94.16,6.51-37.13,3.23-75.22-7.22-111.33-11.84-40.87-32.22-79.03-57.27-113.28-2.55-3.48-6.94-5.21-10.95-2.87-3.44,2.01-5.44,7.44-2.87,10.95h0Z" fill="#75787b"/><path d="M733.84,822.01c-38.58-50.4-65.56-114.95-53.72-179.32,11.39-61.89,53.05-113.64,104.31-148.2,30.44-20.53,64.03-35.81,98.71-47.65,9.69-3.31,5.53-18.77-4.25-15.43-63.72,21.76-125.97,55.4-168.21,109.19-20,25.47-35.56,54.59-43.45,86.13-8.2,32.79-7.36,67.05,.92,99.73,9.55,37.73,28.31,72.84,51.88,103.62,2.62,3.43,6.89,5.24,10.95,2.87,3.37-1.97,5.51-7.49,2.87-10.95h0Z" fill="#75787b"/><path d="M788.15,669.3c-23.38,88.12-61.03,174.81-126.91,239.63-17.39,17.11-36.45,32.31-57.17,45.2-8.73,5.43-.7,19.27,8.08,13.82,79.4-49.36,132.75-129.46,166.04-215.33,10.01-25.83,18.29-52.3,25.39-79.06,2.64-9.96-12.79-14.21-15.43-4.25h0Z" fill="#75787b"/></g><g><path d="M434.21,858.5c-67.28,5.26-138.88-4.7-195.38-43.96-56.39-39.18-89.33-107.23-85.41-175.7,2.29-39.95,16.8-78.62,40.78-110.58,2.59-3.46,.56-8.94-2.87-10.95-4.09-2.39-8.34-.6-10.95,2.87-45.08,60.08-55.87,142.18-27.09,211.62,13.86,33.44,35.57,63.55,63.83,86.31s60.97,37.95,95.71,46.95c39.47,10.23,80.83,12.6,121.38,9.43,10.2-.8,10.28-16.8,0-16h0Z" fill="#75787b"/><path d="M188.33,532.97c59.9-5.99,125.42,3.44,173.39,42.47,48.04,39.08,72.95,99.99,77.66,160.68,3.17,40.73-1.63,81.54-10.7,121.24-2.29,10.02,13.13,14.3,15.43,4.25,16.09-70.45,19.08-145.97-9.69-213.63-12.23-28.76-29.99-55.49-53.09-76.68-23.83-21.86-52.9-37.12-83.93-45.93-35.3-10.02-72.68-12.06-109.08-8.41-4.3,.43-8,3.37-8,8,0,3.99,3.67,8.43,8,8h0Z" fill="#75787b"/><path d="M289.25,659.25c-61.73-65.23-114.81-141.47-136-229.95-6-25.06-9.19-50.62-9.26-76.39-.03-10.29-16.03-10.31-16,0,.26,95.14,41.82,184.24,99.02,258.4,15.92,20.64,33,40.33,50.91,59.26,7.09,7.49,18.39-3.83,11.31-11.31h0Z" fill="#75787b"/></g><g><path d="M312.14,276.51c31.65-57.57,77.88-111.01,139.47-137.19,66.25-28.16,146.12-18.28,202.61,26.75,29.3,23.36,52.2,54.54,64.93,89.84,3.47,9.61,18.93,5.47,15.43-4.25-25.07-69.52-84.9-123.47-157.43-139.15-38.37-8.29-78.94-6.5-116.16,6.21-33.45,11.42-63.61,30.69-89.57,54.53-29.59,27.16-53.79,60.07-73.1,95.19-4.96,9.03,8.85,17.11,13.82,8.08h0Z" fill="#75787b"/><path d="M718.76,250.22c-27.09,51.94-69.24,99.98-125.87,119.76-64.33,22.47-135.04,6.41-192.08-27.75-31.67-18.96-59.75-43.17-85.26-69.72-7.15-7.44-18.45,3.88-11.31,11.31,47.72,49.67,106.35,92.45,174.83,107.04,34.95,7.45,71.73,7.76,106.32-1.78,30.91-8.52,58.95-25.05,82.83-46.27,26.6-23.64,47.95-53.05,64.36-84.52,4.76-9.12-9.05-17.22-13.82-8.08h0Z" fill="#75787b"/><path d="M558.54,264.86c89.68-16.04,184.06-18.17,270.55,14.07,22.85,8.52,44.69,19.55,65.12,32.88,8.65,5.64,16.68-8.2,8.08-13.82-77.94-50.84-173.39-65.46-264.86-59.15-27.88,1.92-55.62,5.68-83.13,10.6-4.26,.76-6.66,5.95-5.59,9.84,1.23,4.48,5.57,6.35,9.84,5.59h0Z" fill="#75787b"/></g></g></svg>
