<?xml version="1.0" encoding="UTF-8"?><svg id="a" xmlns="http://www.w3.org/2000/svg" width="1080" height="1080" viewBox="0 0 1080 1080"><ellipse cx="537.5" cy="536.5" rx="517.5" ry="517.25" fill="none" stroke="#75787b" stroke-miterlimit="10" stroke-width="18"/><path d="M539.32,241.16c-26.88,.24-52.67,6.23-78.31,18.73-64.74,31.57-170.14,62.06-229,64.2-38.84,1.41-62.52,2.36-74.14,2.84-4.91,.2-8.77,4.24-8.77,9.15v247.64c0,8.15,6.61,14.75,14.75,14.75l355.13,.09,18.54-.09h-.34s27.82,.09,27.82,.09l345.84-.09c8.15,0,14.75-6.61,14.75-14.75v-247.64c0-4.91-3.87-8.95-8.77-9.15-11.62-.48-35.3-1.43-74.14-2.84-58.85-2.14-164.26-32.64-229-64.2-25.64-12.5-49.63-18.49-76.51-18.73" fill="none" stroke="#7a7d81" stroke-miterlimit="10" stroke-width="16"/><path d="M891.38,598.57c0,6.79-.29,276,0,226.56" fill="none" stroke="#7a7d81" stroke-miterlimit="10" stroke-width="16"/><path d="M190.47,604.99c0,6.12,.1,275.18,0,220.14" fill="none" stroke="#7a7d81" stroke-miterlimit="10" stroke-width="16"/><g><circle cx="539" cy="414.71" r="7.38" fill="none" stroke="#7a7d81" stroke-miterlimit="10" stroke-width="3"/><circle cx="537.79" cy="298.23" r="7.38" fill="none" stroke="#7a7d81" stroke-miterlimit="10" stroke-width="3"/><ellipse cx="462.41" cy="459.5" rx="7.17" ry="7.38" fill="none" stroke="#7a7d81" stroke-miterlimit="10" stroke-width="3"/><ellipse cx="615.59" cy="459.5" rx="7.17" ry="7.38" fill="none" stroke="#7a7d81" stroke-miterlimit="10" stroke-width="3"/><circle cx="385.83" cy="414.71" r="7.38" fill="none" stroke="#7a7d81" stroke-miterlimit="10" stroke-width="3"/><circle cx="232.65" cy="414.71" r="7.38" fill="none" stroke="#7a7d81" stroke-miterlimit="10" stroke-width="3"/><ellipse cx="309.24" cy="459.5" rx="7.17" ry="7.38" fill="none" stroke="#7a7d81" stroke-miterlimit="10" stroke-width="3"/><circle cx="692.17" cy="414.71" r="7.38" fill="none" stroke="#7a7d81" stroke-miterlimit="10" stroke-width="3"/><circle cx="845.35" cy="414.71" r="7.38" fill="none" stroke="#7a7d81" stroke-miterlimit="10" stroke-width="3"/><ellipse cx="768.76" cy="459.5" rx="7.17" ry="7.38" fill="none" stroke="#7a7d81" stroke-miterlimit="10" stroke-width="3"/><ellipse cx="462.41" cy="357.58" rx="7.17" ry="7.38" fill="none" stroke="#7a7d81" stroke-miterlimit="10" stroke-width="3"/><ellipse cx="615.59" cy="357.58" rx="7.17" ry="7.38" fill="none" stroke="#7a7d81" stroke-miterlimit="10" stroke-width="3"/><ellipse cx="309.24" cy="357.58" rx="7.17" ry="7.38" fill="none" stroke="#7a7d81" stroke-miterlimit="10" stroke-width="3"/><ellipse cx="768.76" cy="357.58" rx="7.17" ry="7.38" fill="none" stroke="#7a7d81" stroke-miterlimit="10" stroke-width="3"/><circle cx="539" cy="508.13" r="7.38" fill="none" stroke="#7a7d81" stroke-miterlimit="10" stroke-width="3"/><ellipse cx="462.41" cy="552.92" rx="7.17" ry="7.38" fill="none" stroke="#7a7d81" stroke-miterlimit="10" stroke-width="3"/><ellipse cx="615.59" cy="552.92" rx="7.17" ry="7.38" fill="none" stroke="#7a7d81" stroke-miterlimit="10" stroke-width="3"/><circle cx="385.83" cy="508.13" r="7.38" fill="none" stroke="#7a7d81" stroke-miterlimit="10" stroke-width="3"/><circle cx="232.65" cy="508.13" r="7.38" fill="none" stroke="#7a7d81" stroke-miterlimit="10" stroke-width="3"/><ellipse cx="309.24" cy="552.92" rx="7.17" ry="7.38" fill="none" stroke="#7a7d81" stroke-miterlimit="10" stroke-width="3"/><circle cx="692.17" cy="508.13" r="7.38" fill="none" stroke="#7a7d81" stroke-miterlimit="10" stroke-width="3"/><circle cx="845.35" cy="508.13" r="7.38" fill="none" stroke="#7a7d81" stroke-miterlimit="10" stroke-width="3"/><ellipse cx="768.76" cy="552.92" rx="7.17" ry="7.38" fill="none" stroke="#7a7d81" stroke-miterlimit="10" stroke-width="3"/></g></svg>
