<?xml version="1.0" encoding="UTF-8"?><svg id="a" xmlns="http://www.w3.org/2000/svg" width="1080" height="1080" viewBox="0 0 1080 1080"><ellipse cx="537.5" cy="536.5" rx="517.5" ry="517.25" fill="none" stroke="#75787b" stroke-miterlimit="10" stroke-width="18"/><g><g id="b"><g><path d="M418.3,391.31c24.18-7.51,48.09-15.86,71.68-25.06h-3.99l.13,.03-4.48-3.45c14.44,22.29,32.38,57.34,16.72,83.19-6.13,10.12-17.07,16.61-29.04,13.78-14.15-3.35-23.44-15.06-29.77-27.44-8.01-15.66-12.97-33.09-16.27-50.3-1.81-9.47-16.27-5.46-14.46,3.99,4.32,22.54,11.39,47.32,25.23,66.02,13,17.56,35.67,29.53,57.15,19.95,19.38-8.64,28.8-30.67,27.89-50.94-.54-12.12-3.88-23.88-8.46-35.05-2.2-5.38-4.6-10.68-7.28-15.84s-5.63-12.53-9.92-16.45c-5.06-4.63-11.59-.32-16.88,1.68-6.65,2.53-13.33,4.98-20.03,7.37-13.96,4.98-28.04,9.65-42.2,14.05-9.19,2.85-5.27,17.34,3.99,14.46h0Z" fill="#75787b"/><path d="M473.76,325.56c-12.17,3.77-24.39,7.37-36.66,10.78-5.97,1.66-11.96,3.28-17.96,4.86-3,.79-6,1.69-9.03,2.33-1.62,.34-3.42,.31-4.96,.88l8.47,3.45c-19-27.38-30.41-58.83-36.39-91.48-3.01-16.45-4.63-33.17-5.09-49.89s.41-33.32,6.33-48.88,16.65-27.52,30.77-34.73c7.09-3.62,15.5-5.61,23.35-3.54,7.25,1.9,13.31,6.52,18.42,11.86,21.58,22.55,27.02,55.99,28.04,85.96,.32,9.48,.39,19.03-.29,28.5-.74,10.22-3.3,20.03-6.11,29.85-5.46,19.14-10.89,39.45-4.12,59.01l12.54-7.3c-.85-.91-1.7-1.82-2.55-2.73-6.61-7.06-17.2,3.56-10.61,10.61,.85,.91,1.7,1.82,2.55,2.73,4.98,5.32,15-.17,12.54-7.3-6.54-18.89,.61-38.1,5.65-56.44,5.14-18.73,6.07-37.59,5.41-56.93-1.14-33.5-7.75-69.05-30.81-94.81-12.13-13.54-28.75-21.48-47.05-17.74s-32.9,16.4-42.91,30.85c-20.81,30.04-17.83,71.58-13.4,106.01,5.19,40.43,17.38,80.24,40.79,113.98,1.77,2.55,5.23,4.65,8.47,3.45s9.68-2.08,13.99-3.21c6-1.58,11.99-3.2,17.96-4.86,12.27-3.41,24.49-7.02,36.66-10.78,9.19-2.84,5.27-17.33-3.99-14.46h0Z" fill="#75787b"/></g></g><g id="c"><g><path d="M406.3,782.31c24.18-7.51,48.09-15.86,71.68-25.06h-3.99l.13,.03-4.48-3.45c14.44,22.29,32.38,57.34,16.72,83.19-6.13,10.12-17.07,16.61-29.04,13.78-14.15-3.35-23.44-15.06-29.77-27.44-8.01-15.66-12.97-33.09-16.27-50.3-1.81-9.47-16.27-5.46-14.46,3.99,4.32,22.54,11.39,47.32,25.23,66.02,13,17.56,35.67,29.53,57.15,19.95,19.38-8.64,28.8-30.67,27.89-50.94-.54-12.12-3.88-23.88-8.46-35.05-2.2-5.38-4.6-10.68-7.28-15.84s-5.63-12.53-9.92-16.45c-5.06-4.63-11.59-.32-16.88,1.68-6.65,2.53-13.33,4.98-20.03,7.37-13.96,4.98-28.04,9.65-42.2,14.05-9.19,2.85-5.27,17.34,3.99,14.46h0Z" fill="#75787b"/><path d="M461.76,716.56c-12.17,3.77-24.39,7.37-36.66,10.78-5.97,1.66-11.96,3.28-17.96,4.86-3,.79-6,1.69-9.03,2.33-1.62,.34-3.42,.31-4.96,.88l8.47,3.45c-19-27.38-30.41-58.83-36.39-91.48-3.01-16.45-4.63-33.17-5.09-49.89s.41-33.32,6.33-48.88,16.65-27.52,30.77-34.73c7.09-3.62,15.5-5.61,23.35-3.54,7.25,1.9,13.31,6.52,18.42,11.86,21.58,22.55,27.02,55.99,28.04,85.96,.32,9.48,.39,19.03-.29,28.5-.74,10.22-3.3,20.03-6.11,29.85-5.46,19.14-10.89,39.45-4.12,59.01,4.18-2.43,8.36-4.86,12.54-7.3-.85-.91-1.7-1.82-2.55-2.73-6.61-7.06-17.2,3.56-10.61,10.61,.85,.91,1.7,1.82,2.55,2.73,4.98,5.32,15-.17,12.54-7.3-6.54-18.89,.61-38.1,5.65-56.44,5.14-18.73,6.07-37.59,5.41-56.93-1.14-33.5-7.75-69.05-30.81-94.81-12.13-13.54-28.75-21.48-47.05-17.74-17.59,3.6-32.9,16.4-42.91,30.85-20.81,30.04-17.83,71.58-13.4,106.01,5.19,40.43,17.38,80.24,40.79,113.98,1.77,2.55,5.23,4.65,8.47,3.45s9.68-2.08,13.99-3.21c6-1.58,11.99-3.2,17.96-4.86,12.27-3.41,24.49-7.02,36.66-10.78,9.19-2.84,5.27-17.33-3.99-14.46h0Z" fill="#75787b"/></g></g><g id="d"><g><path d="M652.55,496.1c-12.31-3.82-24.55-7.85-36.72-12.11-6.1-2.14-12.18-4.33-18.24-6.58-5.47-2.03-11.09-4.95-16.72-6.37-6.59-1.65-9.68,4.98-12.47,9.66-3.11,5.22-5.95,10.6-8.49,16.12-5.06,10.95-9.42,22.43-11.18,34.42-3.12,21.27,2.39,43.9,20.9,56.68,18.71,12.91,43.15,5.76,57.75-9.94,8.59-9.24,14.16-20.49,18.84-32.08,5.29-13.1,9.18-26.71,11.84-40.58,1.81-9.43-12.65-13.47-14.46-3.99-2.94,15.36-7.27,30.7-13.72,44.99-5.69,12.61-13.69,25.49-26.98,31.08-11.68,4.91-23.8,1.55-31.7-8.21-8.7-10.74-9.85-25.25-7.23-38.38,3.48-17.43,11.65-33.88,21.26-48.71l-4.48,3.45,.13-.03h-3.99c23.59,9.2,47.5,17.55,71.68,25.06,9.24,2.87,13.19-11.61,3.99-14.46h0Z" fill="#75787b"/><path d="M589.12,459.28c12.17,3.77,24.39,7.37,36.66,10.78,5.97,1.66,11.96,3.28,17.96,4.86,4.31,1.13,10.6,1.95,13.99,3.21s6.68-.87,8.47-3.45c20.8-29.97,33.07-65.13,38.92-100.97,2.91-17.83,4.63-35.96,4.7-54.04s-2.1-36.59-9.66-53.31c-14.38-31.8-54.92-58-86.92-33.61-27.71,21.12-37.17,58.47-39.75,91.5-1.6,20.46-1.9,41.77,2.86,61.83,4.92,20.75,14.93,42.3,7.52,63.69-2.46,7.12,7.55,12.62,12.54,7.3,.85-.91,1.7-1.82,2.55-2.73,6.59-7.04-3.99-17.67-10.61-10.61-.85,.91-1.7,1.82-2.55,2.73l12.54,7.3c5.98-17.29,2.47-35.59-2.32-52.7-2.44-8.7-5.17-17.36-6.74-26.28s-1.65-17.53-1.65-26.29c-.01-30.54,3.15-63.2,20.93-89.05,8.24-11.98,20.84-23.58,36.48-21.43,15.75,2.16,29.81,14.56,37.83,27.7,8.77,14.37,11.47,31.32,11.89,47.9,.42,16.43-.79,33.07-3.07,49.35-5.18,37.06-16.99,73.25-38.44,104.16l8.47-3.45c-1.55-.57-3.34-.55-4.96-.88-3.03-.62-6.04-1.54-9.03-2.33-6-1.58-11.99-3.2-17.96-4.86-12.27-3.41-24.49-7.02-36.66-10.78-9.24-2.86-13.2,11.61-3.99,14.46h0Z" fill="#75787b"/></g></g><g id="e"><g><path d="M638.55,886.1c-12.31-3.82-24.55-7.85-36.72-12.11-6.1-2.14-12.18-4.33-18.24-6.58-5.47-2.03-11.09-4.95-16.72-6.37-6.59-1.65-9.68,4.98-12.47,9.66-3.11,5.22-5.95,10.6-8.49,16.12-5.06,10.95-9.42,22.43-11.18,34.42-3.12,21.27,2.39,43.9,20.9,56.68,18.71,12.91,43.15,5.76,57.75-9.94,8.59-9.24,14.16-20.49,18.84-32.08,5.29-13.1,9.18-26.71,11.84-40.58,1.81-9.43-12.65-13.47-14.46-3.99-2.94,15.36-7.27,30.7-13.72,44.99-5.69,12.61-13.69,25.49-26.98,31.08-11.68,4.91-23.8,1.55-31.7-8.21-8.7-10.74-9.85-25.25-7.23-38.38,3.48-17.43,11.65-33.88,21.26-48.71l-4.48,3.45,.13-.03h-3.99c23.59,9.2,47.5,17.55,71.68,25.06,9.24,2.87,13.19-11.61,3.99-14.46h0Z" fill="#75787b"/><path d="M575.12,849.28c12.17,3.77,24.39,7.37,36.66,10.78,5.97,1.66,11.96,3.28,17.96,4.86,4.31,1.13,10.6,1.95,13.99,3.21s6.68-.87,8.47-3.45c20.8-29.97,33.07-65.13,38.92-100.97,2.91-17.83,4.63-35.96,4.7-54.04s-2.1-36.59-9.66-53.31c-14.38-31.8-54.92-58-86.92-33.61-27.71,21.12-37.17,58.47-39.75,91.5-1.6,20.46-1.9,41.77,2.86,61.83,4.92,20.75,14.93,42.3,7.52,63.69-2.46,7.12,7.55,12.62,12.54,7.3,.85-.91,1.7-1.82,2.55-2.73,6.59-7.04-3.99-17.67-10.61-10.61-.85,.91-1.7,1.82-2.55,2.73,4.18,2.43,8.36,4.86,12.54,7.3,5.98-17.29,2.47-35.59-2.32-52.7-2.44-8.7-5.17-17.36-6.74-26.28s-1.65-17.53-1.65-26.29c-.01-30.54,3.15-63.2,20.93-89.05,8.24-11.98,20.84-23.58,36.48-21.43,15.75,2.16,29.81,14.56,37.83,27.7,8.77,14.37,11.47,31.32,11.89,47.9,.42,16.43-.79,33.07-3.07,49.35-5.18,37.06-16.99,73.25-38.44,104.16l8.47-3.45c-1.55-.57-3.34-.55-4.96-.88-3.03-.62-6.04-1.54-9.03-2.33-6-1.58-11.99-3.2-17.96-4.86-12.27-3.41-24.49-7.02-36.66-10.78-9.24-2.86-13.2,11.61-3.99,14.46h0Z" fill="#75787b"/></g></g></g></svg>
