<?xml version="1.0" encoding="UTF-8"?><svg id="Layer_1" xmlns="http://www.w3.org/2000/svg" viewBox="0 0 1080 1080"><defs><style>.cls-1{fill:none;stroke:#75787b;stroke-miterlimit:10;stroke-width:18px;}.cls-2{fill:#75787b;}</style></defs><circle class="cls-1" cx="541" cy="540" r="521"/><path class="cls-2" d="M545.19,363.4c-66.54-5.49-128.05,41.66-147.02,104.26-9.95,32.85-9.24,69,1.14,101.65,10.7,33.64,32.39,61.68,49.36,92.18,9.8,17.61,17.05,35.88,20.37,55.83,1.83,10.96,2.59,22.08,3.17,33.16,.54,10.41,.8,20.6-1.29,30.86-.96,4.72,2.1,9.49,7.23,9.49h121.08c3.27,0,6.39-2.33,7.23-5.51,1.07-4.05-.54-8.15-.92-12.24-.47-5.01-.42-10.06-.25-15.09,.33-9.94,.96-19.9,2.02-29.79,1.98-18.35,6.62-36.11,14.57-52.79,15.21-31.89,37.84-59.64,51.42-92.38,26.04-62.76,13.47-141.35-39.94-185.96-27.87-23.27-64.03-36.71-100.53-33.69-9.55,.79-9.64,15.8,0,15,30.51-2.52,60.45,7.17,84.92,25.33,25.2,18.7,42.29,46.15,49.59,76.51,7.62,31.7,4.67,65.56-7.28,95.81-12.31,31.17-33.93,57.59-48.95,87.36-9.02,17.88-15.02,36.5-17.75,56.35-1.44,10.5-2.24,21.06-2.78,31.65-.56,11.08-.67,22.05,1.67,32.96v-3.99l-.25,.96,7.23-5.51h-121.08l7.23,9.49c3.64-17.86,2.2-36.31,.42-54.33-1.8-18.27-5.37-36.08-12.46-53.08-13.12-31.43-34.58-58.24-49.73-88.59-29.01-58.12-22.46-133.41,27.38-178.18,25.56-22.96,59.8-35.59,94.18-32.76,9.62,.79,9.57-14.21,0-15h0Z"/><g><path class="cls-2" d="M478.19,815.24h121.08c9.65,0,9.67-15,0-15h-121.08c-9.65,0-9.67,15,0,15h0Z"/><path class="cls-2" d="M478.19,840.04h121.08c9.65,0,9.67-15,0-15h-121.08c-9.65,0-9.67,15,0,15h0Z"/><path class="cls-2" d="M502.79,864.83h71.89c9.65,0,9.67-15,0-15h-71.89c-9.65,0-9.67,15,0,15h0Z"/></g><g><path class="cls-2" d="M758.32,515.84h78.31v-15h-2.59c-9.65,0-9.67,15,0,15h2.59c9.65,0,9.67-15,0-15h-78.31c-9.65,0-9.67,15,0,15h0Z"/><path class="cls-2" d="M697,359l57.63-53.02-10.61-10.61-1.9,1.75c-7.12,6.55,3.51,17.14,10.61,10.61l1.9-1.75c7.12-6.55-3.51-17.14-10.61-10.61l-57.63,53.02c-7.12,6.55,3.51,17.14,10.61,10.61h0Z"/><path class="cls-2" d="M687.27,666.41l55.87,54.88,10.61-10.61-1.84-1.81c-6.89-6.77-17.51,3.83-10.61,10.61l1.84,1.81c6.89,6.77,17.51-3.83,10.61-10.61l-55.87-54.88c-6.89-6.77-17.51,3.83-10.61,10.61h0Z"/><path class="cls-2" d="M548.74,290.31v-78.31h-15v2.59c0,9.65,15,9.67,15,0v-2.59c0-9.65-15-9.67-15,0v78.31c0,9.65,15,9.67,15,0h0Z"/><path class="cls-2" d="M394.89,349.63l-55.24-55.51-10.61,10.61,1.82,1.83c6.82,6.85,17.43-3.75,10.61-10.61l-1.82-1.83c-6.82-6.85-17.43,3.75-10.61,10.61l55.24,55.51c6.82,6.85,17.43-3.75,10.61-10.61h0Z"/><path class="cls-2" d="M325.09,500.84h-78.31v15h2.59c9.65,0,9.67-15,0-15h-2.59c-9.65,0-9.67,15,0,15h78.31c9.65,0,9.67-15,0-15h0Z"/><path class="cls-2" d="M383.02,655.17l-54.59,56.15,10.61,10.61,1.8-1.85c6.73-6.93-3.86-17.54-10.61-10.61l-1.8,1.85c-6.73,6.93,3.86,17.54,10.61,10.61l54.59-56.15c6.73-6.93-3.86-17.54-10.61-10.61h0Z"/></g></svg>