<?xml version="1.0" encoding="UTF-8"?><svg id="a" xmlns="http://www.w3.org/2000/svg" width="1080" height="1080" viewBox="0 0 1080 1080"><ellipse cx="537.5" cy="536.5" rx="517.5" ry="517.25" fill="none" stroke="#75787b" stroke-miterlimit="10" stroke-width="18"/><path d="M542.74,304.4c-43.41-3.66-87.44,10-122.69,35.25s-62.94,63.5-75.62,106.61-11.72,93.86,2.94,138.08,44.96,83.53,67.73,125.2c13.4,24.52,22.87,50.06,27.08,77.76,2.24,14.75,3.19,29.7,3.93,44.59,.67,13.61,.75,26.86-1.98,40.26-.96,4.72,2.1,9.49,7.23,9.49,55.02,0,110.04,0,165.06,0,3.27,0,6.39-2.33,7.23-5.51,1.37-5.18-.91-10.93-1.37-16.19-.6-6.84-.56-13.72-.32-20.57,.46-13.09,1.26-26.2,2.63-39.23,2.65-25.31,8.77-49.82,19.6-72.89,20.38-43.41,51.26-81.03,69.93-125.34,35.85-85.04,19.62-191.57-53-252.3-37.42-31.3-86.19-49.35-135.23-45.21-9.55,.81-9.63,15.81,0,15,41.55-3.51,82.52,9.66,116.03,34.09,34.89,25.43,58.95,62.88,69.44,104.59,10.97,43.59,7.46,90.39-8.63,132.26-16.57,43.1-46.26,79.52-67.12,120.43-12.32,24.15-20.64,49.37-24.41,76.24-2,14.27-3.08,28.63-3.82,43.01-.77,15.03-1.09,30.02,2.15,44.8v-3.99l-.35,1.31,7.23-5.51c-55.02,0-110.04,0-165.06,0,2.41,3.16,4.82,6.33,7.23,9.49,4.96-24.32,2.87-49.59,.4-74.13-2.55-25.33-7.82-49.8-17.84-73.26-18.19-42.58-47.66-78.98-67.88-120.49-39.1-80.3-28.47-183.81,40.47-244.59,35.15-30.98,82.06-48.22,128.99-44.26,9.62,.81,9.56-14.19,0-15h0Z" fill="#75787b"/><g><path d="M451.41,914.9c55.02,0,110.04,0,165.06,0,9.65,0,9.67-15,0-15-55.02,0-110.04,0-165.06,0-9.65,0-9.67,15,0,15h0Z" fill="#75787b"/><path d="M451.41,948.7c55.02,0,110.04,0,165.06,0,9.65,0,9.67-15,0-15-55.02,0-110.04,0-165.06,0-9.65,0-9.67,15,0,15h0Z" fill="#75787b"/><path d="M484.94,982.5h98.01c9.65,0,9.67-15,0-15h-98.01c-9.65,0-9.67,15,0,15h0Z" fill="#75787b"/></g><g><path d="M833.29,509.47c35.59,0,71.17,0,106.76,0v-15h-3.53c-9.65,0-9.67,15,0,15h3.53c9.65,0,9.67-15,0-15-35.59,0-71.17,0-106.76,0-9.65,0-9.67,15,0,15h0Z" fill="#75787b"/><path d="M747.77,296.46c26.19-24.09,52.38-48.19,78.57-72.28-3.54-3.54-7.07-7.07-10.61-10.61l-2.59,2.39c-7.12,6.55,3.51,17.14,10.61,10.61l2.59-2.39c7.12-6.55-3.51-17.14-10.61-10.61-26.19,24.09-52.38,48.19-78.57,72.28-7.12,6.55,3.51,17.14,10.61,10.61h0Z" fill="#75787b"/><path d="M738.37,715.54c25.39,24.94,50.78,49.87,76.16,74.81l10.61-10.61-2.51-2.47c-6.89-6.77-17.51,3.83-10.61,10.61l2.51,2.47c6.89,6.77,17.51-3.83,10.61-10.61-25.39-24.94-50.78-49.87-76.16-74.81-6.89-6.77-17.51,3.83-10.61,10.61h0Z" fill="#75787b"/><path d="M544.86,204.76c0-35.59,0-71.17,0-106.76h-15v3.53c0,9.65,15,9.67,15,0v-3.53c0-9.65-15-9.67-15,0,0,35.59,0,71.17,0,106.76,0,9.65,15,9.67,15,0h0Z" fill="#75787b"/><path d="M335.93,287.55c-25.1-25.22-50.21-50.45-75.31-75.67l-10.61,10.61c.83,.83,1.66,1.67,2.49,2.5,6.82,6.85,17.43-3.75,10.61-10.61l-2.49-2.5c-6.82-6.85-17.43,3.75-10.61,10.61,25.1,25.22,50.21,50.45,75.31,75.67,6.82,6.85,17.43-3.75,10.61-10.61h0Z" fill="#75787b"/><path d="M242.71,494.47c-35.59,0-71.17,0-106.76,0v15c1.18,0,2.35,0,3.53,0,9.65,0,9.67-15,0-15-1.18,0-2.35,0-3.53,0-9.65,0-9.67,15,0,15,35.59,0,71.17,0,106.76,0,9.65,0,9.67-15,0-15h0Z" fill="#75787b"/><path d="M323.59,704.06c-24.81,25.52-49.61,51.03-74.42,76.55l10.61,10.61,2.46-2.53c6.73-6.93-3.86-17.54-10.61-10.61l-2.46,2.53c-6.73,6.93,3.86,17.54,10.61,10.61,24.81-25.52,49.61-51.03,74.42-76.55,6.73-6.93-3.86-17.54-10.61-10.61h0Z" fill="#75787b"/></g></svg>