<?xml version="1.0" encoding="UTF-8"?><svg id="a" xmlns="http://www.w3.org/2000/svg" width="1080" height="1080" viewBox="0 0 1080 1080"><ellipse cx="537.5" cy="536.5" rx="517.5" ry="517.25" fill="none" stroke="#75787b" stroke-miterlimit="10" stroke-width="18"/><g id="b"><g><path d="M358.82,616.08c42.02-13.03,83.57-27.55,124.55-43.54h-4.19l.23,.05-4.71-3.62c15.53,23.86,28.61,50.11,35.63,77.81,6.2,24.46,6.52,51.21-7.34,73.18-11.7,18.53-32.18,30.15-54.32,25.38-25.78-5.56-43.5-26.36-55.21-48.75-14.62-27.98-23.74-59.31-29.6-90.21-1.89-9.95-17.07-5.73-15.19,4.19,3.87,20.4,9.33,40.46,16.5,59.95,6.56,17.83,14.09,35.77,25.19,51.31,20.47,28.65,57.06,50.39,92.45,35.63,32.71-13.64,48.53-49.88,47.36-83.67-.71-20.44-6.41-40.41-14.04-59.27-7.45-18.4-16.25-37.28-27.84-53.48-3.7-5.18-8.32-3.97-13.45-1.98-5.5,2.13-11.01,4.24-16.53,6.31-11.32,4.26-22.69,8.42-34.1,12.46-23.04,8.16-46.25,15.85-69.6,23.09-9.65,2.99-5.53,18.2,4.19,15.19h0Z" fill="#75787b"/><path d="M457.92,511.78c-20.4,6.32-40.88,12.37-61.45,18.11-10.12,2.83-20.26,5.58-30.42,8.27-5.08,1.34-10.16,2.67-15.25,3.97-3.87,.99-8.42,1.04-12.09,2.4l8.89,3.62c-33.55-48.14-53.58-103.94-63.97-161.42-5.2-28.78-8.02-58.03-8.81-87.26-.78-29.1,.92-58.79,11.34-86.26,9.89-26.07,29.08-48.72,53.69-61.98,12.61-6.8,27.59-11.19,41.98-8.73,13.13,2.24,24.73,9.45,34.33,18.45,40.52,37.94,51.96,97.6,54.47,150.67,1.47,31.18,1.36,62.58-6.45,92.97s-19.86,61.34-16.69,93.46c.77,7.85,2.31,15.5,4.95,22.93l13.16-7.66c-1.48-1.58-2.96-3.16-4.44-4.74-6.94-7.41-18.06,3.74-11.14,11.14,1.48,1.58,2.96,3.16,4.44,4.74,5.21,5.56,15.82-.18,13.16-7.66-11.34-31.9-.26-65.06,8.5-96.11,4.71-16.68,8.48-33.42,9.88-50.72,1.3-16.12,1.2-32.4,.74-48.56-1.64-57.52-12.26-119.01-51.63-163.51-9.55-10.8-21.09-20.26-34.4-25.98-14.66-6.3-30.56-7.2-46.01-3.33-29.2,7.32-54.53,29-70.59,53.93s-23.16,57.17-24.77,87.73c-1.62,30.72,.71,61.9,4.72,92.36,8.02,60.99,25.42,121.35,57.4,174.28,3.96,6.56,8.15,12.97,12.53,19.25,1.87,2.68,5.49,4.88,8.89,3.62s7.59-1.26,11.14-2.16c5.09-1.29,10.17-2.63,15.25-3.97,10.48-2.76,20.94-5.6,31.37-8.52,20.57-5.75,41.05-11.79,61.45-18.11,9.65-2.99,5.53-18.2-4.19-15.19h0Z" fill="#75787b"/></g><g><path d="M723.14,816.58c-41.17-12.76-81.89-26.95-122.06-42.57-4.56-1.77-8.56-1.57-11.61,2.7s-5.57,8.75-8.16,13.18c-5.06,8.66-9.68,17.58-13.84,26.7-8.42,18.47-15.6,37.81-18.46,58-4.96,34.96,4.54,72.75,35.49,93.1,31.39,20.63,71.09,6.87,94.36-19.38,13.95-15.73,23.06-34.77,30.7-54.17,8.65-21.96,15.13-44.7,19.52-67.89,1.88-9.91-13.3-14.15-15.19-4.19-5.36,28.28-13.57,56.52-25.83,82.62-10.49,22.32-25.74,44.63-49.79,53.65-22.02,8.26-43.98,1.76-58.85-16.17-16.27-19.6-18.71-46.43-14.02-70.65,6.01-31.01,20.53-60.53,37.66-86.84l-4.71,3.62,.23-.05h-4.19c40.99,15.99,82.53,30.52,124.55,43.54,9.7,3.01,13.85-12.19,4.19-15.19h0Z" fill="#75787b"/><path d="M615.66,742.66c20.4,6.32,40.88,12.37,61.45,18.11,10.12,2.83,20.26,5.58,30.42,8.27,5.08,1.34,10.16,2.67,15.25,3.97,3.84,.98,8.45,1.05,12.09,2.4,3.43,1.27,7.01-.91,8.89-3.62,35.22-50.54,56.11-109.81,66.45-170.25,5.21-30.48,8.18-61.48,8.6-92.4,.43-30.85-2.48-62.39-14.7-91.02s-33-51.76-59.79-65.62c-13.86-7.17-29.71-11.84-45.44-10.45s-28.52,7.48-40.31,16.59c-46.83,36.17-62.35,100.39-66.46,156.44-2.33,31.8-3.17,65.11,3.27,96.46,6.67,32.48,21.29,63.96,19.47,97.73-.43,7.97-2.05,15.68-4.72,23.2s7.95,13.23,13.16,7.66c1.48-1.58,2.96-3.16,4.44-4.74,6.92-7.39-4.19-18.55-11.14-11.14-1.48,1.58-2.96,3.16-4.44,4.74l13.16,7.66c10.79-30.35,3.4-62.71-5.11-92.61-4.49-15.78-9.34-31.58-11.59-47.88-2.18-15.77-2.22-31.84-2.06-47.73,.52-54.04,7.56-112.38,41.38-156.65,16.59-21.71,40.68-39.24,69.26-32.75s50.86,26.94,64.99,50.53c14.99,25.03,19.89,54.45,20.76,83.22s-1.28,58.73-5.3,87.63c-8.02,57.74-24.99,114.85-55.39,164.9-3.83,6.3-7.88,12.47-12.09,18.52l8.89-3.62c-3.4-1.26-7.56-1.26-11.14-2.16-5.09-1.29-10.17-2.63-15.25-3.97-10.48-2.76-20.94-5.6-31.37-8.52-20.57-5.75-41.05-11.79-61.45-18.11-9.7-3.01-13.85,12.19-4.19,15.19h0Z" fill="#75787b"/></g></g></svg>
