<?xml version="1.0" encoding="UTF-8"?><svg id="a" xmlns="http://www.w3.org/2000/svg" width="1080" height="1080" viewBox="0 0 1080 1080"><ellipse cx="537.5" cy="536.5" rx="517.5" ry="517.25" fill="none" stroke="#75787b" stroke-miterlimit="10" stroke-width="18"/><g id="b"><g><path d="M417.86,888.06c27.13-8.42,53.96-17.79,80.43-28.12h-3.99l.15,.03-4.48-3.45c9.62,14.83,17.76,30.98,22.36,48.11,4.13,15.38,4.85,32.34-3.73,46.36-7.07,11.55-19.63,18.91-33.33,15.72-15.9-3.7-26.55-16.67-33.75-30.54-9.25-17.81-14.95-37.73-18.71-57.37-1.81-9.47-16.27-5.46-14.46,3.99,2.68,14.01,6.49,27.77,11.55,41.11,4.41,11.62,9.47,23.18,16.98,33.16,14.46,19.23,39.49,32.2,63.05,21.42,21.24-9.71,31.34-34.02,30.33-56.28-.61-13.4-4.33-26.41-9.38-38.76-2.46-6.03-5.15-11.96-8.15-17.73-1.57-3.01-3.21-5.98-4.93-8.9s-3.56-7.08-6.06-9.37c-5.41-4.98-13.12,.26-18.7,2.37-7.82,2.96-15.67,5.84-23.55,8.64-15.1,5.36-30.32,10.4-45.62,15.15-9.19,2.85-5.27,17.34,3.99,14.46h0Z" fill="#75787b"/><path d="M480.57,816.06c-13.43,4.16-26.91,8.13-40.44,11.91-6.61,1.84-13.23,3.64-19.86,5.39-3.16,.83-6.31,1.68-9.48,2.46-2.32,.58-4.98,.57-7.19,1.39l8.47,3.45c-21.59-31.07-34.46-66.9-41.12-103.99-3.33-18.53-5.11-37.36-5.56-56.18-.45-18.68,.67-37.86,7.69-55.39,6.61-16.51,19.32-30.77,35.35-38.6,8.09-3.95,17.49-5.89,26.31-3.5,8.13,2.2,14.96,7.42,20.71,13.41,24.41,25.44,30.59,63.23,31.75,97.08,.36,10.58,.45,21.25-.3,31.82-.82,11.5-3.64,22.52-6.8,33.56-6.11,21.41-12.37,44.21-4.73,66.1,4.18-2.43,8.36-4.86,12.54-7.3-.96-1.02-1.91-2.04-2.87-3.06-6.61-7.06-17.2,3.56-10.61,10.61,.96,1.02,1.91,2.04,2.87,3.06,4.98,5.31,15.02-.17,12.54-7.3-7.29-20.89,.35-42.25,5.99-62.55,5.8-20.88,7.08-41.74,6.43-63.33-1.12-37.71-8.22-77.86-34.06-106.99-13.29-14.97-31.46-24.01-51.68-20.08-19.48,3.78-36.54,17.82-47.71,33.72-23.5,33.43-20.27,79.69-15.42,118.18,5.73,45.49,19.4,90.36,45.76,128.3,1.77,2.55,5.23,4.65,8.47,3.45,1.79-.66,4.4-.71,6.38-1.19,3.44-.83,6.87-1.77,10.3-2.67,6.63-1.75,13.25-3.54,19.86-5.39,13.54-3.77,27.02-7.75,40.44-11.91,9.19-2.85,5.27-17.33-3.99-14.46h0Z" fill="#75787b"/></g><g><path d="M707.3,580.55c-13.77-4.27-27.47-8.78-41.08-13.55-6.37-2.23-12.72-4.52-19.05-6.86s-13.31-5.78-20.08-7.63-9.87,4.85-12.77,9.66c-3.82,6.34-7.27,12.9-10.34,19.64-5.55,12.19-10.25,24.88-12.14,38.2-3.32,23.38,3.08,48.11,23.36,62.04,20.46,14.06,47.1,6.11,63.13-10.85,9.7-10.26,15.98-22.95,21.21-35.92,5.92-14.71,10.31-29.97,13.28-45.54,1.8-9.43-12.65-13.47-14.46-3.99-3.36,17.56-8.34,35.09-15.79,51.38-6.49,14.19-15.7,28.59-30.77,34.7-13.45,5.45-27.2,1.56-36.26-9.62-9.87-12.19-11.28-28.63-8.35-43.56,3.88-19.74,13.13-38.41,24.01-55.18l-4.48,3.45,.15-.03h-3.99c26.47,10.32,53.3,19.7,80.43,28.12,9.24,2.87,13.19-11.61,3.99-14.46h0Z" fill="#75787b"/><path d="M636.62,537.47c13.43,4.16,26.91,8.13,40.44,11.91,6.61,1.84,13.23,3.64,19.86,5.39,3.16,.83,6.31,1.68,9.48,2.46,2.27,.56,5.13,.63,7.19,1.39,3.27,1.21,6.68-.87,8.47-3.45,23.23-33.44,36.94-72.67,43.51-112.66,3.31-20.16,5.25-40.68,5.3-61.12,.05-20.42-2.41-41.11-11.07-59.81-8.13-17.56-22.69-33.13-40.27-41.46-19.13-9.07-39.33-7.8-56.21,5.28-30.56,23.68-40.86,65.39-43.64,102.06-1.79,23.51-1.98,47.83,3.79,70.81,5.67,22.63,16.02,46.31,7.88,69.65-2.48,7.12,7.56,12.61,12.54,7.3,.96-1.02,1.91-2.04,2.87-3.06,6.59-7.04-3.99-17.67-10.61-10.61-.96,1.02-1.91,2.04-2.87,3.06l12.54,7.3c6.64-19.04,2.8-39.28-2.47-58.14-2.72-9.73-5.76-19.39-7.58-29.35-1.87-10.23-2.02-20.72-2-31.09,.05-34.52,3.81-71.4,24.16-100.46,9.56-13.66,24.1-26.38,41.93-23.59s33.15,16.32,42.26,31.02c9.88,15.95,13.08,34.82,13.66,53.3s-.8,37.81-3.37,56.4c-5.78,41.82-19.08,82.74-43.3,117.6l8.47-3.45c-1.96-.73-4.33-.69-6.38-1.19-3.44-.83-6.87-1.77-10.3-2.67-6.63-1.75-13.25-3.54-19.86-5.39-13.54-3.77-27.02-7.75-40.44-11.91-9.24-2.86-13.2,11.61-3.99,14.46h0Z" fill="#75787b"/></g><g><path d="M415.87,448.39c29.35-9.1,58.36-19.24,86.98-30.41h-3.99l.16,.03-4.48-3.45c10.56,16.26,19.49,34.03,24.42,52.85,4.42,16.87,4.93,35.31-4.64,50.53-8.12,12.93-22.36,20.34-37.56,16.4-17.17-4.46-28.54-18.95-36.23-34.09-9.68-19.05-15.75-40.2-19.74-61.12-1.81-9.47-16.27-5.46-14.46,3.99,2.75,14.43,6.62,28.62,11.72,42.4,4.7,12.7,10.09,25.48,18.11,36.49,14.72,20.22,40.72,35.45,65.91,25.27,23.84-9.64,35.73-35.64,34.95-60.24-.46-14.74-4.55-29.15-10.1-42.72-2.55-6.24-5.31-12.39-8.4-18.38-3.24-6.3-6.58-13.37-11.04-18.93-5.88-7.34-14.9-1.03-21.88,1.61-7.92,2.99-15.87,5.91-23.85,8.74-16.51,5.87-33.15,11.38-49.88,16.58-9.19,2.85-5.27,17.34,3.99,14.46h0Z" fill="#75787b"/><path d="M484.01,371.7c-14.37,4.45-28.79,8.71-43.28,12.75-6.92,1.93-13.86,3.82-20.81,5.66-3.79,1-7.58,2.02-11.38,2.96-2.53,.63-5.36,.61-7.78,1.51l8.47,3.45c-23.54-33.86-37.5-72.98-44.68-113.41-3.54-19.91-5.43-40.15-5.9-60.37-.47-19.98,.76-40.43,8.11-59.23,7.06-18.04,20.69-33.6,38.04-42.36,8.68-4.38,18.95-6.82,28.58-4.48,8.97,2.18,16.57,7.67,22.97,14.17,26.83,27.26,33.84,68.25,35.22,104.94,.44,11.79,.55,23.69-.27,35.46-.87,12.48-3.9,24.44-7.32,36.44-6.59,23.1-13.46,47.76-5.18,71.38l12.54-7.3c-1.03-1.1-2.07-2.21-3.1-3.31-6.61-7.06-17.2,3.56-10.61,10.61,1.03,1.1,2.07,2.21,3.1,3.31,4.97,5.31,15.03-.17,12.54-7.3-7.81-22.32,.1-45.24,6.19-66.94,6.47-23.07,7.96-46.05,7.21-69.92-1.27-40.59-9.01-83.87-37-115.1-14.47-16.14-34.33-25.69-56.15-20.92-20.65,4.51-38.58,19.46-50.41,36.49-25.1,36.16-21.42,86.23-16.12,127.69,6.24,48.82,21,96.99,49.31,137.71,1.77,2.55,5.23,4.65,8.47,3.45,2.33-.86,5.31-.9,7.78-1.51,3.49-.86,6.96-1.8,10.43-2.71,7.27-1.92,14.52-3.88,21.76-5.9,14.49-4.04,28.91-8.3,43.28-12.75,9.19-2.85,5.27-17.33-3.99-14.46h0Z" fill="#75787b"/></g></g></svg>
