<?xml version="1.0" encoding="UTF-8"?><svg id="a" xmlns="http://www.w3.org/2000/svg" width="1080" height="1080" viewBox="0 0 1080 1080"><ellipse cx="537.5" cy="536.5" rx="517.5" ry="517.25" fill="none" stroke="#75787b" stroke-miterlimit="10" stroke-width="18"/><g><path d="M258,889.5H818c9.65,0,9.67-15,0-15h-218.22c-72.74,0-145.48,0-218.22,0h-123.56c-9.65,0-9.67,15,0,15h0Z" fill="#75787b"/><path d="M604.8,870.53c-11.55-23.17-9.45-51.14-4.25-75.74,4.73-22.42,13.09-43.99,25.32-63.39,11.92-18.92,27.66-35.57,46.73-47.39,11.44-7.09,23.85-12.08,36.52-16.5,13.84-4.82,27.82-9.36,41.98-13.15,31.03-8.3,63.64-12.93,95.34-5.62v-14.46c-42.55,16.43-85.18,35.3-119.57,65.98-31.54,28.14-54.58,67.61-57.12,110.4-.71,11.9,.39,24.02,3.34,35.58,1.55,6.06,3.67,11.93,6.18,17.65,1.39,3.17,2.91,6.28,4.59,9.3,.56,1.01,1.14,2.01,1.73,3,.59,.99,1.2,1.97,1.83,2.94,.41,1.58,.8,1.94,1.17,1.08,1.55,3.72,4.98,6.43,9.23,5.24,3.52-.99,6.81-5.45,5.24-9.23-1.77-4.26-4.88-8.03-7.06-12.12-2.69-5.04-4.91-10.26-6.66-15.7-2.97-9.26-4.56-18.82-4.76-28.54-.39-19.4,4.43-38.76,12.74-56.23,18.06-37.98,50.65-65.11,86.9-85.07,21.24-11.69,43.62-21.1,66.22-29.82,6.35-2.45,7.86-12.65,0-14.46-30.6-7.05-62.02-4.27-92.34,2.86-15.29,3.59-30.31,8.25-45.19,13.26-14.13,4.76-28.34,9.76-41.46,16.93-44.36,24.24-73.08,70.76-84.37,119.08-7.01,30.02-9.34,63.36,4.79,91.7,4.31,8.64,17.25,1.05,12.95-7.57h0Z" fill="#75787b"/><path d="M546.1,869.2c-5.91-43.82-7.16-88.31-4-132.4,3.1-43.22,9.46-87.66,23.92-128.67,22.01-62.45,67.85-115.68,124.72-149.13,15.77-9.28,32.39-17.08,49.69-23.07,8.95-3.1,18.06-5.75,27.29-7.9,10.43-2.44,21.47-5.24,31.85-1.3l-1.79-13.71c-71.97,51.68-133.12,121.91-156.69,208.91-3.39,12.53-5.88,25.26-7.57,38.13-.84,6.38-1.47,12.79-1.85,19.22-.29,4.92-2.23,14.05,.87,18.23,1.93,2.6,5.09,4.55,8.47,3.45,1.67-.54,3.09-1.2,4.25-2.56,2.17-2.53,2.98-6.08,1.17-9.09l-.25-.41c-4.96-8.27-17.94-.74-12.95,7.57l.25,.41,1.17-9.09,2.37-1.3,8.47,3.45-.28-.38,1.02,3.79c.62-85.92,44.69-164.4,105.43-222.86,16.77-16.14,34.78-30.93,53.69-44.51,5.44-3.91,4.44-11.34-1.79-13.71-10.34-3.93-21.4-2.54-31.98-.41-8.58,1.73-17.07,3.9-25.44,6.45-16.86,5.15-33.27,11.91-48.93,20-30.76,15.89-58.86,37.28-82.5,62.56-24.15,25.82-43.72,55.7-57.37,88.32-16.92,40.43-24.15,84.94-28.56,128.32-5.27,51.85-4.09,104.07,2.87,155.69,.54,4.01,5.7,6.23,9.23,5.24,4.33-1.21,5.78-5.18,5.24-9.23h0Z" fill="#75787b"/><path d="M413.57,875c6.99-22.98-4.86-45.39-14.53-65.64-9.57-20.03-19.37-39.97-30.45-59.21-21.3-36.98-47.77-71.38-82.92-96.16-18.55-13.08-39.43-22.99-61.56-28.22l-1.99,14.73c50.69-4.62,102.09,8.64,144.15,37.35,40.67,27.77,69.62,69.65,88.55,114.58,5.39,12.8,10,25.94,14,39.24,2.02,6.7,3.87,13.46,5.58,20.25,.79,3.13,1.54,6.26,2.26,9.4,.67,2.93,2.35,6.98,2.03,9.97l1.02-3.79,2.75-1.94,9.23,5.24-.12-.58c-1.97-9.44-16.44-5.45-14.46,3.99l.12,.58c.89,4.27,5.44,5.84,9.23,5.24,7.8-1.23,7.47-9.92,6.24-15.63-1.41-6.56-2.95-13.09-4.63-19.59-3.37-13.04-7.3-25.94-11.88-38.62-9.12-25.25-20.65-49.76-35.44-72.19-30.37-46.05-74.01-81.19-126.74-98.19-29.51-9.52-61-13.12-91.88-10.31-7.91,.72-10.79,12.65-1.99,14.73,80.31,19,126.11,94.71,159.72,163.73,5.25,10.79,10.86,21.56,15.31,32.71s7.51,22.68,3.96,34.35c-2.81,9.26,11.66,13.21,14.46,3.99h0Z" fill="#75787b"/><path d="M483.76,796.96c-2.17-25.82-5.67-51.29-12.25-76.39-6.37-24.28-15.05-47.89-25.39-70.75-20.4-45.07-47.86-86.55-78.92-124.96-17.55-21.7-36.32-42.39-55.81-62.36l-7.3,12.54c82.36,34.04,151.62,97.87,193.91,176.13,13.27,24.55,25.99,51.45,28.9,79.51,.42,4.03,3.15,7.5,7.5,7.5,3.73,0,7.92-3.45,7.5-7.5-2.82-27.18-13.43-52.65-25.62-76.87-10.57-21.01-23.04-41.06-37.14-59.88-28.03-37.38-62.08-69.94-100.88-95.99-22.08-14.83-45.61-27.21-70.17-37.36-7.29-3.01-12.11,7.6-7.3,12.54,66.98,68.63,126.28,147.89,153.41,241.11,7.89,27.13,12.22,54.62,14.57,82.73,.8,9.55,15.81,9.63,15,0h0Z" fill="#75787b"/><path d="M468.42,798.16c.8,11.36,1.6,22.73,2.41,34.09,.68,9.57,15.68,9.65,15,0-.8-11.36-1.6-22.73-2.41-34.09-.68-9.57-15.68-9.65-15,0h0Z" fill="#75787b"/><path d="M476.26,593.99c12.3-20.1,10.26-44.56,7.81-66.98-2.66-24.34-7.06-48.54-14.28-71.96-13.31-43.13-36.35-83.82-70.9-113.44-18.23-15.63-39.04-27.8-61.9-35.26l-1.99,14.73c26.11-2.72,51.9,2.81,74.5,16.21s40.33,31.09,57.69,49.27c18.25,19.12,33.49,40.2,44.34,64.39,10.55,23.5,16.95,48.83,21.09,74.19,5.2,31.79,6.6,64.07,8.09,96.21,.45,9.61,15.45,9.67,15,0-2.68-57.86-5.66-117.24-28.37-171.34-10.74-25.59-25.84-48.29-44.58-68.73-17.93-19.56-37.65-38.78-59.94-53.34-25.98-16.98-56.87-25.08-87.83-21.85-8.21,.86-10.43,11.98-1.99,14.73,37.35,12.18,68.72,38.75,90.64,70.97,25.15,36.96,38.2,80.83,44.17,124.79,3.01,22.21,7.87,49.62-4.5,69.83-5.05,8.26,7.92,15.8,12.95,7.57h0Z" fill="#75787b"/><path d="M541.14,629.46c.2,.69,.36,1.36,.52,2.06,.47,2.06,.02-1.3,.11,.81,.03,.71,.06,1.41,.04,2.12,0,.33-.22,2.37,0,.82-.56,3.87,.95,8.25,5.24,9.23,3.55,.81,8.62-1.09,9.23-5.24,.68-4.7,.66-9.18-.67-13.8-1.09-3.77-5.34-6.5-9.23-5.24s-6.4,5.19-5.24,9.23h0Z" fill="#75787b"/><path d="M536.9,476.21c-4.33-30.69-1.69-62.08,3.96-92.41,5.03-27.02,12.17-53.72,22-79.4,18.59-48.57,48.36-94.06,90.68-125.11,22.82-16.75,48.5-29.02,76.2-35.07l-7.3-12.54c-41.92,42.46-77.7,91.49-102.41,145.94-26.26,57.87-40.62,122.01-36.97,185.72,1.01,17.6,3.52,35.38,9.49,52.03,1.25,3.48,2.46,7.08,5.65,9.27,3.46,2.37,8.39,2.46,11.5-.65,5.85-5.84,.36-17.42-8.14-14.59-9.11,3.04-5.21,17.53,3.99,14.46l.54-.18-7.3-1.93-1.61-3.67,1.02-3.79,1.81-1.81,5.78-.76,1.91,1.52c-.34-.91-.67-1.82-.99-2.73-.6-1.72-1.17-3.45-1.7-5.19-.88-2.9-1.67-5.83-2.37-8.78-1.68-7.04-2.87-14.18-3.62-21.38-1.4-13.35-1.69-26.83-1.34-40.24,.72-27.5,4.69-54.8,11.44-81.45,13.1-51.76,36.66-100.27,67.32-143.87,16.9-24.03,36-46.42,56.63-67.32,5.44-5.51-.13-14.1-7.3-12.54-51.84,11.31-97.41,43.69-129.87,85.09-35.74,45.58-56.58,100.99-68,157.35-7.21,35.62-10.55,71.87-5.45,108.01,.56,4,5.68,6.23,9.23,5.24,4.31-1.21,5.81-5.18,5.24-9.23h0Z" fill="#75787b"/></g></svg>
