<?xml version="1.0" encoding="UTF-8"?><svg id="a" xmlns="http://www.w3.org/2000/svg" width="1080" height="1080" viewBox="0 0 1080 1080"><circle cx="541" cy="540" r="521" fill="none" stroke="#75787b" stroke-miterlimit="10" stroke-width="18"/><line x1="317" y1="75" x2="317" y2="1007" fill="none" stroke="#75787b" stroke-miterlimit="10" stroke-width="18"/><line x1="769" y1="73" x2="769" y2="1007" fill="none" stroke="#75787b" stroke-miterlimit="10" stroke-width="18"/><line x1="26" y1="462" x2="317" y2="175.2" fill="none" stroke="#75787b" stroke-miterlimit="10" stroke-width="18"/><line x1="31" y1="646" x2="317" y2="364.08" fill="none" stroke="#75787b" stroke-miterlimit="10" stroke-width="18"/><line x1="83" y1="778" x2="317" y2="548.97" fill="none" stroke="#75787b" stroke-miterlimit="10" stroke-width="18"/><line x1="159" y1="888" x2="317" y2="731.21" fill="none" stroke="#75787b" stroke-miterlimit="10" stroke-width="18"/><line x1="317" y1="282.94" x2="585" y2="21" fill="none" stroke="#75787b" stroke-miterlimit="10" stroke-width="18"/><line x1="317" y1="461.18" x2="731" y2="53" fill="none" stroke="#75787b" stroke-miterlimit="10" stroke-width="18"/><line x1="317" y1="656.72" x2="769" y2="214" fill="none" stroke="#75787b" stroke-miterlimit="10" stroke-width="18"/><line x1="317" y1="858.9" x2="769" y2="414.63" fill="none" stroke="#75787b" stroke-miterlimit="10" stroke-width="18"/><line x1="341" y1="1017" x2="769" y2="590.21" fill="none" stroke="#75787b" stroke-miterlimit="10" stroke-width="18"/><line x1="481" y1="1058" x2="769" y2="769.78" fill="none" stroke="#75787b" stroke-miterlimit="10" stroke-width="18"/><line x1="769" y1="880.19" x2="1062" y2="588" fill="none" stroke="#75787b" stroke-miterlimit="10" stroke-width="18"/><line x1="769" y1="676.67" x2="1043" y2="408" fill="none" stroke="#75787b" stroke-miterlimit="10" stroke-width="18"/><line x1="769" y1="502.54" x2="990" y2="283" fill="none" stroke="#75787b" stroke-miterlimit="10" stroke-width="18"/><line x1="769" y1="315.6" x2="910" y2="175.2" fill="none" stroke="#75787b" stroke-miterlimit="10" stroke-width="18"/></svg>