<?xml version="1.0" encoding="UTF-8"?><svg id="a" xmlns="http://www.w3.org/2000/svg" width="1080" height="1080" viewBox="0 0 1080 1080"><ellipse cx="537.5" cy="536.5" rx="517.5" ry="517.25" fill="none" stroke="#75787b" stroke-miterlimit="10" stroke-width="18"/><g><path d="M257.91,489.57c67.46,0,134.91,0,202.37,0,10.13,0,10.15-15.75,0-15.75-67.46,0-134.91,0-202.37,0-10.13,0-10.15,15.75,0,15.75h0Z" fill="#75787b"/><path d="M276.5,528.78c54.9,0,109.8,0,164.7,0,10.13,0,10.15-15.75,0-15.75-54.9,0-109.8,0-164.7,0-10.13,0-10.15,15.75,0,15.75h0Z" fill="#75787b"/><path d="M199.01,659.95c26.54,48.06,53.08,96.11,79.62,144.17,4.9,8.87,18.51,.94,13.6-7.95-26.54-48.06-53.08-96.11-79.62-144.17-4.9-8.87-18.51-.94-13.6,7.95h0Z" fill="#75787b"/><path d="M510.36,652.08c-26.62,48.01-53.25,96.02-79.87,144.03-4.92,8.87,8.68,16.82,13.6,7.95,26.62-48.01,53.25-96.02,79.87-144.03,4.92-8.87-8.68-16.82-13.6-7.95h0Z" fill="#75787b"/><path d="M456.34,485.96c32.71,58.99,65.43,117.98,98.14,176.98,4.92,8.87,18.52,.93,13.6-7.95-32.71-58.99-65.43-117.98-98.14-176.98-4.92-8.87-18.52-.93-13.6,7.95h0Z" fill="#75787b"/><path d="M456.34,126.97c32.71,58.99,65.43,117.98,98.14,176.98,4.92,8.87,18.52,.93,13.6-7.95-32.71-58.99-65.43-117.98-98.14-176.98-4.92-8.87-18.52-.93-13.6,7.95h0Z" fill="#75787b"/><path d="M250.82,478.01c-32.71,58.99-65.43,117.98-98.14,176.98-4.92,8.87,8.68,16.82,13.6,7.95,32.71-58.99,65.43-117.98,98.14-176.98,4.92-8.87-8.68-16.82-13.6-7.95h0Z" fill="#75787b"/><path d="M561.57,312c67.46,0,134.91,0,202.37,0,10.13,0,10.15-15.75,0-15.75-67.46,0-134.91,0-202.37,0-10.13,0-10.15,15.75,0,15.75h0Z" fill="#75787b"/><path d="M554.48,300.45c-32.71,58.99-65.43,117.98-98.14,176.98-4.92,8.87,8.68,16.82,13.6,7.95,32.71-58.99,65.43-117.98,98.14-176.98,4.92-8.87-8.68-16.82-13.6-7.95h0Z" fill="#75787b"/><path d="M461.57,829.94c-67.46,0-134.91,0-202.37,0-10.13,0-10.15,15.75,0,15.75,67.46,0,134.91,0,202.37,0,10.13,0,10.15-15.75,0-15.75h0Z" fill="#75787b"/><path d="M263.14,833.54c-32.71-58.99-65.43-117.98-98.14-176.98-4.92-8.87-18.52-.93-13.6,7.95,32.71,58.99,65.43,117.98,98.14,176.98,4.92,8.87,18.52,.93,13.6-7.95h0Z" fill="#75787b"/><path d="M875.6,833.54c-32.71-58.99-65.43-117.98-98.14-176.98-4.92-8.87-18.52-.93-13.6,7.95l98.14,176.98c4.92,8.87,18.52,.93,13.6-7.95h0Z" fill="#75787b"/><path d="M468.66,841.49c32.71-58.99,65.43-117.98,98.14-176.98,4.92-8.87-8.68-16.82-13.6-7.95-32.71,58.99-65.43,117.98-98.14,176.98-4.92,8.87,8.68,16.82,13.6,7.95h0Z" fill="#75787b"/><path d="M770.37,652.37c-67.46,0-134.91,0-202.37,0-10.13,0-10.15,15.75,0,15.75,67.46,0,134.91,0,202.37,0,10.13,0,10.15-15.75,0-15.75h0Z" fill="#75787b"/><path d="M777.46,663.93c32.71-58.99,65.43-117.98,98.14-176.98,4.92-8.87-8.68-16.82-13.6-7.95-32.71,58.99-65.43,117.98-98.14,176.98-4.92,8.87,8.68,16.82,13.6,7.95h0Z" fill="#75787b"/></g></svg>
