<?xml version="1.0" encoding="UTF-8"?><svg id="a" xmlns="http://www.w3.org/2000/svg" width="1080" height="1080" viewBox="0 0 1080 1080"><ellipse cx="537.5" cy="536.5" rx="517.5" ry="517.25" fill="none" stroke="#75787b" stroke-miterlimit="10" stroke-width="18"/><g><path d="M223.54,222.92H856.62c9.65,0,9.67-15,0-15H223.54c-9.65,0-9.67,15,0,15h0Z" fill="#75787b"/><path d="M223.54,864.73H856.62c9.65,0,9.67-15,0-15H223.54c-9.65,0-9.67,15,0,15h0Z" fill="#75787b"/><path d="M864.5,856.85c0-83.25,0-166.5,0-249.75,0-83.58,0-167.17,0-250.75,0-46.95,0-93.91,0-140.86,0-9.65-15-9.67-15,0,0,83.25,0,166.5,0,249.75,0,83.58,0,167.17,0,250.75,0,46.95,0,93.91,0,140.86,0,9.65,15,9.67,15,0h0Z" fill="#75787b"/><path d="M226.67,857.3c0-83.31,0-166.62,0-249.93,0-83.64,0-167.29,0-250.93,0-46.99,0-93.97,0-140.96,0-9.65-15-9.67-15,0,0,83.31,0,166.62,0,249.93,0,83.64,0,167.29,0,250.93,0,46.99,0,93.97,0,140.96,0,9.65,15,9.67,15,0h0Z" fill="#75787b"/><path d="M223.28,273.04h300c9.65,0,9.67-15,0-15H223.28c-9.65,0-9.67,15,0,15h0Z" fill="#75787b"/><path d="M643.13,276.1c33.33,0,66.67,0,100,0,9.65,0,9.67-15,0-15-33.33,0-66.67,0-100,0-9.65,0-9.67,15,0,15h0Z" fill="#75787b"/><path d="M352.29,365.41c74.22,0,148.43,0,222.65,0,21.2,0,42.41,0,63.61,0,9.65,0,9.67-15,0-15-74.22,0-148.43,0-222.65,0h-63.61c-9.65,0-9.67,15,0,15h0Z" fill="#75787b"/><path d="M518.07,224.32v124.43c0,9.65,15,9.67,15,0v-124.43c0-9.65-15-9.67-15,0h0Z" fill="#75787b"/><path d="M634.11,226.61c0,73.79,0,147.58,0,221.37,0,9.65,15,9.67,15,0,0-73.79,0-147.58,0-221.37,0-9.65-15-9.67-15,0h0Z" fill="#75787b"/><path d="M734.87,226.61v321.37c0,9.65,15,9.67,15,0V226.61c0-9.65-15-9.67-15,0h0Z" fill="#75787b"/><path d="M422.65,225.85v36.64c0,9.65,15,9.67,15,0v-36.64c0-9.65-15-9.67-15,0h0Z" fill="#75787b"/><path d="M253.19,273.94v185.5c0,9.65,15,9.67,15,0v-185.5c0-9.65-15-9.67-15,0h0Z" fill="#75787b"/><path d="M226.34,466.94c40.2,0,80.41,0,120.61,0,9.65,0,9.67-15,0-15-40.2,0-80.41,0-120.61,0-9.65,0-9.67,15,0,15h0Z" fill="#75787b"/><path d="M340.21,275.47v278.63c0,9.65,15,9.67,15,0V275.47c0-9.65-15-9.67-15,0h0Z" fill="#75787b"/><path d="M440.21,362.49c0,76.11,0,152.21,0,228.32v64.81c0,9.65,15,9.67,15,0,0-76.11,0-152.21,0-228.32v-64.81c0-9.65-15-9.67-15,0h0Z" fill="#75787b"/><path d="M542.5,458.67v283.21c0,9.65,15,9.67,15,0V458.67c0-9.65-15-9.67-15,0h0Z" fill="#75787b"/><path d="M448.48,466.94c75.37,0,150.73,0,226.1,0h64.74c9.65,0,9.67-15,0-15-75.37,0-150.73,0-226.1,0-21.58,0-43.16,0-64.74,0-9.65,0-9.67,15,0,15h0Z" fill="#75787b"/><path d="M742.37,377.63c36.39,0,72.77,0,109.16,0,9.65,0,9.67-15,0-15-36.39,0-72.77,0-109.16,0-9.65,0-9.67,15,0,15h0Z" fill="#75787b"/><path d="M550.77,564.65h294.66c9.65,0,9.67-15,0-15h-294.66c-9.65,0-9.67,15,0,15h0Z" fill="#75787b"/><path d="M657.01,565.55c0,73.05,0,146.1,0,219.15,0,20.59,0,41.17,0,61.76,0,9.65,15,9.67,15,0,0-73.05,0-146.1,0-219.15v-61.76c0-9.65-15-9.67-15,0h0Z" fill="#75787b"/><path d="M671.38,670.76c58.52,0,117.05,0,175.57,0,9.65,0,9.67-15,0-15-58.52,0-117.05,0-175.57,0-9.65,0-9.67,15,0,15h0Z" fill="#75787b"/><path d="M754.72,671.65v174.81c0,9.65,15,9.67,15,0v-174.81c0-9.65-15-9.67-15,0h0Z" fill="#75787b"/><path d="M765.27,766.17h86.62v-15c-1.14,0-2.28,0-3.42,0-9.65,0-9.67,15,0,15,1.14,0,2.28,0,3.42,0,9.65,0,9.67-15,0-15h-86.62c-9.65,0-9.67,15,0,15h0Z" fill="#75787b"/><path d="M227.86,560.83h213.74c9.65,0,9.67-15,0-15H227.86c-9.65,0-9.67,15,0,15h0Z" fill="#75787b"/><path d="M224.05,669.99c82.35,0,164.71,0,247.06,0h69.73c9.65,0,9.67-15,0-15-82.35,0-164.71,0-247.06,0-23.24,0-46.49,0-69.73,0-9.65,0-9.67,15,0,15h0Z" fill="#75787b"/><path d="M250.9,662.49v189.31c0,9.65,15,9.67,15,0v-189.31c0-9.65-15-9.67-15,0h0Z" fill="#75787b"/><path d="M356.24,667.84c0,60.05,0,120.1,0,180.15,0,9.65,15,9.67,15,0,0-60.05,0-120.1,0-180.15,0-9.65-15-9.67-15,0h0Z" fill="#75787b"/><path d="M369.09,757.01c75.66,0,151.32,0,226.97,0h64.99v-15c-1.39,0-2.79,0-4.18,0-9.65,0-9.67,15,0,15,1.39,0,2.79,0,4.18,0,9.65,0,9.67-15,0-15-75.66,0-151.32,0-226.97,0-21.66,0-43.33,0-64.99,0-9.65,0-9.67,15,0,15h0Z" fill="#75787b"/><path d="M460.06,752.57c0,34.27,0,68.55,0,102.82,0,9.65,15,9.67,15,0,0-.94,0-1.88,0-2.82,0-9.65-15-9.67-15,0,0,.94,0,1.88,0,2.82h15c0-34.27,0-68.55,0-102.82,0-9.65-15-9.67-15,0h0Z" fill="#75787b"/></g></svg>
