<?xml version="1.0" encoding="UTF-8"?><svg id="Layer_1" xmlns="http://www.w3.org/2000/svg" viewBox="0 0 1080 1080"><defs><style>.cls-1{fill:none;stroke:#75787b;stroke-miterlimit:10;stroke-width:18px;}.cls-2{fill:#75787b;}</style></defs><circle class="cls-1" cx="541" cy="540" r="521"/><path class="cls-2" d="M299.22,234h477.87c10.3,0,10.31-16,0-16H299.22c-10.3,0-10.31,16,0,16h0Z"/><path class="cls-2" d="M299.22,864h477.87c10.3,0,10.31-16,0-16H299.22c-10.3,0-10.31,16,0,16h0Z"/><path class="cls-2" d="M449.91,231.68c0,79.94,0,159.87,0,239.81v373.7h16c0-2.54,0-5.08,0-7.61,0-10.3-16-10.31-16,0,0,2.54,0,5.08,0,7.61,0,10.3,16,10.31,16,0V231.68c0-10.3-16-10.31-16,0h0Z"/><path class="cls-2" d="M614.66,232.82V846.67c0,10.3,16,10.31,16,0V232.82c0-10.3-16-10.31-16,0h0Z"/></svg>