<?xml version="1.0" encoding="UTF-8"?><svg id="a" xmlns="http://www.w3.org/2000/svg" width="1080" height="1080" viewBox="0 0 1080 1080"><ellipse cx="537.5" cy="536.5" rx="517.5" ry="517.25" fill="none" stroke="#75787b" stroke-miterlimit="10" stroke-width="18"/><g><path d="M230.87,237H497.72c15.44,0,15.47-24,0-24H230.87c-15.44,0-15.47,24,0,24h0Z" fill="#75787b"/><path d="M230.87,861H497.72c15.44,0,15.47-24,0-24H230.87c-15.44,0-15.47,24,0,24h0Z" fill="#75787b"/><line x1="364.29" y1="232.35" x2="364.29" y2="846.67" fill="none" stroke="#75787b" stroke-miterlimit="10" stroke-width="48"/></g><g><path d="M578.36,237h266.85c15.44,0,15.47-24,0-24h-266.85c-15.44,0-15.47,24,0,24h0Z" fill="#75787b"/><path d="M578.36,861h266.85c15.44,0,15.47-24,0-24h-266.85c-15.44,0-15.47,24,0,24h0Z" fill="#75787b"/><line x1="711.79" y1="232.35" x2="711.79" y2="846.67" fill="none" stroke="#75787b" stroke-miterlimit="10" stroke-width="48"/></g></svg>