<?xml version="1.0" encoding="UTF-8"?>
<svg id="Layer_1" data-name="Layer 1" xmlns="http://www.w3.org/2000/svg" viewBox="0 0 1080 1080">
  <defs>
    <style>
      .cls-1 {
        stroke: #7a7d81;
        stroke-width: 14px;
      }

      .cls-1, .cls-2 {
        fill: none;
        stroke-miterlimit: 10;
      }

      .cls-3 {
        fill: #fff;
      }

      .cls-4 {
        fill: #797d81;
      }

      .cls-5 {
        fill: #7a7d81;
      }

      .cls-2 {
        stroke: #75787b;
        stroke-width: 18px;
      }
    </style>
  </defs>
  <circle class="cls-2" cx="541" cy="540" r="521"/>
  <path class="cls-1" d="M638.78,375.56l62.69-50.18c3.98-3.19,3.04-9.48-1.7-11.39-151.86-61.06-303.46-12.25-338.9,.87-3.45,1.28-4.17,5.84-1.28,8.13l58.08,46.04c1.21,.96,2.28,2.28,7.97,9.11,0,0,1.14,6.82,1.14,6.83v162.78s0-161.3,0-161.3c0-6.95-3.31-13.49-8.92-17.6l-61.83-45.33c-2.89-2.12-4.99-5.17-5.78-8.66-1.51-6.69-1.85-19.47,5.11-42.4,1.16-3.83,3.8-7.06,7.33-8.95,18.43-9.89,88.16-30.52,169.96-30.52s149.25,20.63,167.68,30.52c3.53,1.89,6.17,5.12,7.33,8.95,6.96,22.93,6.62,35.71,5.11,42.4-.79,3.49-2.89,6.55-5.78,8.66l-61.83,45.33c-5.61,4.11-8.92,10.65-8.92,17.6v306.09c0,6.95,3.31,13.49,8.92,17.6l61.83,45.33c2.89,2.12,4.99,5.17,5.78,8.66,1.51,6.69,1.85,19.47-5.11,42.4-1.16,3.83-3.8,7.06-7.33,8.95-18.43,9.89-85.88,30.52-167.68,30.52s-151.52-20.63-169.96-30.52c-3.53-1.89-6.17-5.12-7.33-8.95-6.96-22.93-6.62-35.71-5.11-42.4,.79-3.49,2.89-6.55,5.78-8.66l61.83-45.33c5.61-4.11,8.92-10.65,8.92-17.6v-161.3s-1.55,167.13-1.55,167.13c-.02,2.65,1.53,5.07,3.95,6.14,20,8.83,112,44.51,204.94-.03,2.29-1.1,5.01-.77,7,.82l60.36,48.31c3.98,3.19,3.04,9.48-1.7,11.39-173.49,69.75-346.64-3.88-346.64-3.88"/>
  <path class="cls-1" d="M426.77,400.53c6.83,1.51,75.13,23.14,204.9,.38"/>
  <path class="cls-1" d="M417.67,370.17c5.85,1.65,93.34,12.52,232.22-2.28"/>
  <path class="cls-1" d="M426.77,435.67c5.69,2.8,102.45,24.43,209.46,0"/>
  <path class="cls-1" d="M424.5,471.69s102.45,25.98,209.46,0"/>
  <path class="cls-1" d="M426.36,509.44s105.14,30.35,209.86,0"/>
  <path class="cls-1" d="M633.95,546.33c-3.42,4.84-121.8,31.02-209.46,0"/>
  <path class="cls-1" d="M425.63,584.18s103.59,42.12,210.59,0"/>
  <path class="cls-1" d="M424.5,625.16s103.59,42.12,210.59,0"/>
  <path class="cls-1" d="M424.5,666.14s103.59,42.12,210.59,0"/>
  <path class="cls-4" d="M282,746c-2-2,425.65-375.17,425.65-375.17,1.5-1.27,2.97-2.59,4.34-4.01,2.32-2.42,8.66-7.17,17.01,1.18s-2,19-2,19c0,0-444,360-445,359Z"/>
  <path class="cls-3" d="M662,424c-.71-.71,9-13,9-13,4-5,8.47-8.47,11.41-11.41l11.59-11.59,17-15s7.88-8.67,14.5-1.27-2.5,13.27-2.5,13.27l-15,12-22,15c-3.1,2.39-7.1,4.76-10,6,0,0-13,7-14,6Z"/>
  <path class="cls-5" d="M832.57,707.64c-24.69-9.32-48.55-21.63-70-37.06-9.31-6.7-18.6-14.8-23.4-25.47-5.67-12.6-3.14-28.06-2.73-41.45,.9-29.08,1.81-58.16,2.71-87.24,.87-28.01,2.29-56.08,2.41-84.1,.05-13.48-.56-26.97-2.81-40.28-.78-4.62-1.16-12.89-5.1-16.22-3.4-2.87-7.89-1.53-11.08,.93-8.56,6.58-13.09,17.91-15.87,27.98-3.6,13.01-5.28,26.68-5.22,40.17,.11,28.27,7.92,56.29,13.75,83.77s11.8,56.03,17.86,84.02c3.34,15.46,6.82,30.89,10.7,46.22,3.86,15.24,8.72,30.24,12.28,45.55,3.69,15.88,4.56,31.45,.42,47.33-3.46,13.26-7.94,28.6-18.58,37.91-3.4,2.97,1.57,7.91,4.95,4.95,8.6-7.52,12.94-18.13,16.59-28.69,4.25-12.28,7.33-24.95,6.98-38.02-.36-13.37-3.64-26.45-7.24-39.27s-7.47-26.63-10.74-40.09c-6.69-27.49-12.34-55.22-18.21-82.89-5.89-27.73-12.23-55.41-17.55-83.26-5.15-26.98-6.69-55.5,2.63-81.83,1.86-5.24,4.35-10.4,7.94-14.69,1.5-1.79,4.33-6.09,6.44-3.03,1.73,2.5,1.8,8.01,2.31,11.02,2.36,13.91,2.7,28.11,2.53,42.2-.69,56.51-3.39,113.06-5.15,169.55-.43,13.75-2.43,28.62,3.14,41.63,4.7,10.96,13.44,19.45,22.77,26.58,22.65,17.31,48.82,30.51,75.41,40.55,4.22,1.59,6.04-5.17,1.86-6.75h0Z"/>
</svg>