<?xml version="1.0" encoding="UTF-8"?><svg id="a" xmlns="http://www.w3.org/2000/svg" width="1080" height="1080" viewBox="0 0 1080 1080"><ellipse cx="537.5" cy="536.5" rx="517.5" ry="517.25" fill="none" stroke="#75787b" stroke-miterlimit="10" stroke-width="18"/><g><path d="M554.94,653.53c-14.01,2.55-63.14-9.54-101.88-53.49-54.57-61.88-59.87-155.57-11.46-225.42,54.34-55.19,108.68-110.37,163.01-165.56,13.86-11.01,42.28-30.45,82.78-36.93,74.92-11.99,130.78,30.05,142.64,39.48,18.83,14.97,59.09,52.87,68.77,115.89,10.18,66.27-20.3,115.6-28.02,127.35-60.71,59.01-121.41,118.02-182.12,177.02-16.56,21.65-20.34,9-21.65,8.91" fill="none" stroke="#75787b" stroke-miterlimit="10" stroke-width="16"/><path d="M571.49,569.48c-6.37,2.55-28.95,4.46-57.31-33.11-25.68-34.03-17.83-71.32-3.82-90.42,54.6-68.76,99.08-114.28,126.51-140.59,12.04-11.55,29.79-28.03,56.88-32.61,23.18-3.92,54.12,.73,77.69,22.92,2.44,2.29,30.8,29.85,28.02,68.77-1.92,26.91-17.72,45.09-34.39,63.68-69.04,77-78.97,99.63-109.52,112.07" fill="none" stroke="#75787b" stroke-miterlimit="10" stroke-width="16"/></g><g><path d="M528.19,424.29c19.1,1.27,64.72,26.37,76.41,35.66,18.83,14.97,59.09,52.87,68.77,115.89,10.18,66.27-20.3,115.6-28.02,127.35-60.71,59.01-121.41,118.02-182.12,177.02-76.8,48.56-177.41,34.16-235.61-31.84-54.57-61.88-59.87-155.57-11.46-225.42,54.34-55.19,108.68-110.37,163.01-165.56,13.86-11.01,30.57-25.47,38.21-25.47" fill="none" stroke="#75787b" stroke-miterlimit="10" stroke-width="16"/><path d="M502.72,514.72c5.09,1.27,21-.54,44.57,21.65,2.44,2.29,28.25,34.94,25.47,73.87-1.92,26.91-17.72,45.09-34.39,63.68-78.9,88-119.01,132.09-151.55,136.27-13.61,1.75-67.16,5.74-95.52-31.84-25.68-34.03-21.65-67.5-7.64-86.6,54.6-68.76,99.08-114.28,126.51-140.59,11.47-11,14.86-9.69,17.4-10.96" fill="none" stroke="#75787b" stroke-miterlimit="10" stroke-width="16"/></g></svg>
