<?xml version="1.0" encoding="UTF-8"?><svg id="a" xmlns="http://www.w3.org/2000/svg" width="1080" height="1080" viewBox="0 0 1080 1080"><ellipse cx="537.5" cy="536.5" rx="517.5" ry="517.25" fill="none" stroke="#75787b" stroke-miterlimit="10" stroke-width="18"/><path d="M787.08,701.65c4.26,1.42,20.74,7.07,19.88,6.84-88.26-23.5-85.92-115.99-85.92-115.99,0,0-4.3-63.5,63.27-106.08,67.57-42.58,125.33,.02,125.33,.02,0,0,54.36,39.72,58.11,116.99,3.75,77.26-35.72,125.23-76.22,140.15-36.6,13.48-119.74,23.08-143.48,25.62-4.15,.44-8.31,.69-12.49,.75l-433.83,5.81c-4.02,.05-7.78-2-9.9-5.41L104.63,470.58c-1.71-2.73,.24-6.28,3.46-6.3l430.31,5.75" fill="none" stroke="#7a7d81" stroke-miterlimit="10" stroke-width="16"/><path d="M927.05,501.99l-244.36-227.8c-5.64-5.26-12.35-9.27-19.7-11.61-15.93-5.08-45.19-10.62-76.98,2.1-56.84,22.74-72.47,61.1-76.97,101.84-4.13,37.4,11.76,75.81,12.09,76.6,0,.02,0,.02,.02,.04l14.26,28.33,.15,.2,211.74,198.69" fill="none" stroke="#7a7d81" stroke-miterlimit="10" stroke-width="16"/></svg>