<?xml version="1.0" encoding="UTF-8"?><svg id="Layer_1" xmlns="http://www.w3.org/2000/svg" viewBox="0 0 1080 1080"><defs><style>.cls-1{stroke:#75787b;stroke-width:18px;}.cls-1,.cls-2{fill:none;stroke-miterlimit:10;}.cls-2{stroke:#7a7d81;stroke-width:16px;}</style></defs><circle class="cls-1" cx="541" cy="540" r="521"/><path class="cls-2" d="M718,669c3,1,14.59,4.97,13.99,4.81-62.11-16.54-60.46-81.62-60.46-81.62,0,0-3.03-44.69,44.52-74.65s88.2,.01,88.2,.01c0,0,38.25,27.95,40.89,82.33s-25.14,88.13-53.64,98.63c-25.76,9.49-84.26,16.24-100.97,18.03-2.92,.31-5.85,.49-8.79,.53l-305.3,4.09c-2.83,.04-5.47-1.4-6.97-3.8l-131.73-210.95c-1.2-1.92,.17-4.42,2.44-4.44l302.82,4.04"/><path class="cls-2" d="M816.5,528.5l-171.96-160.31c-3.97-3.7-8.69-6.52-13.86-8.17-11.21-3.57-31.8-7.47-54.17,1.48-40,16-51,43-54.17,71.67-2.91,26.32,8.27,53.35,8.51,53.9v.03l10.05,19.94,.11,.14,149.01,139.82"/></svg>